<svg width="558" height="41" viewBox="0 0 558 41" fill="none" xmlns="http://www.w3.org/2000/svg">
<g opacity="0.4" clip-path="url(#clip0_2506_2451)">
<path d="M73.7499 40.5V37.8417V35.7411H61.9883C61.2139 35.7411 60.5049 35.2944 60.1827 34.6028C59.8561 33.9008 59.973 33.1018 60.4886 32.5185L67.3543 24.7441H64.722C63.9468 24.7441 63.2627 24.3145 62.9362 23.6229C62.6105 22.9313 62.7179 22.14 63.2172 21.5575L69.9325 13.747H67.4497C66.6677 13.747 65.9621 13.2873 65.6562 12.5777C65.3545 11.8792 65.4963 11.0664 66.0205 10.5089L75.4979 0.415612C76.017 -0.138537 76.9838 -0.138537 77.5021 0.415612L86.9786 10.5089C87.5028 11.0664 87.6455 11.8792 87.343 12.5777C87.037 13.2873 86.3323 13.747 85.5503 13.747H83.0675L89.7819 21.5558C90.283 22.1391 90.3904 22.9313 90.0638 23.622C89.7373 24.3145 89.0523 24.7441 88.278 24.7441H85.6457L92.5114 32.5185C93.027 33.1018 93.1439 33.9008 92.8173 34.6028C92.4951 35.2944 91.7861 35.7411 91.0117 35.7411H79.2501V37.8417V40.5" stroke="#A5A6A6"/>
<path d="M21.2 41V34.61C20.4793 34.865 19.7127 35 18.9 35C15.0667 35 12 32 12 28.25C12 26.345 12.7667 24.635 14.0853 23.405C13.7327 22.595 13.5333 21.695 13.5333 20.75C13.5333 17 16.6 14 20.4333 14C22.8253 14 24.9413 15.2 26.1833 17H26.5667C27.6741 17 28.7708 17.2134 29.794 17.628C30.8171 18.0426 31.7468 18.6503 32.5299 19.4164C33.313 20.1825 33.9342 21.0919 34.358 22.0929C34.7819 23.0938 35 24.1666 35 25.25C35 26.3334 34.7819 27.4062 34.358 28.4071C33.9342 29.4081 33.313 30.3175 32.5299 31.0836C31.7468 31.8497 30.8171 32.4574 29.794 32.872C28.7708 33.2866 27.6741 33.5 26.5667 33.5C25.8 33.5 25.0333 33.395 24.2667 33.185V41" stroke="#A5A6A6"/>
<path d="M489.6 41V31.5333C488.535 31.9111 487.401 32.1111 486.2 32.1111C480.533 32.1111 476 27.6667 476 22.1111C476 19.2889 477.133 16.7556 479.083 14.9333C478.561 13.7333 478.267 12.4 478.267 11C478.267 5.44444 482.8 1 488.467 1C492.003 1 495.131 2.77778 496.967 5.44444H497.533C499.17 5.44444 500.792 5.76058 502.304 6.37481C503.817 6.98903 505.191 7.88931 506.349 9.02425C507.506 10.1592 508.425 11.5066 509.051 12.9894C509.678 14.4723 510 16.0616 510 17.6667C510 19.2717 509.678 20.861 509.051 22.3439C508.425 23.8268 507.506 25.1741 506.349 26.3091C505.191 27.444 503.817 28.3443 502.304 28.9585C500.792 29.5728 499.17 29.8889 497.533 29.8889C496.4 29.8889 495.267 29.7333 494.133 29.4222V41" stroke="#A5A6A6"/>
<path d="M275.6 41V31.5333C274.535 31.9111 273.401 32.1111 272.2 32.1111C266.533 32.1111 262 27.6667 262 22.1111C262 19.2889 263.133 16.7556 265.083 14.9333C264.561 13.7333 264.267 12.4 264.267 11C264.267 5.44444 268.8 1 274.467 1C278.003 1 281.131 2.77778 282.967 5.44444H283.533C285.17 5.44444 286.792 5.76058 288.304 6.37481C289.817 6.98903 291.191 7.88931 292.349 9.02425C293.506 10.1592 294.425 11.5066 295.051 12.9894C295.678 14.4723 296 16.0616 296 17.6667C296 19.2717 295.678 20.861 295.051 22.3439C294.425 23.8268 293.506 25.1741 292.349 26.3091C291.191 27.444 289.817 28.3443 288.304 28.9585C286.792 29.5728 285.17 29.8889 283.533 29.8889C282.4 29.8889 281.267 29.7333 280.133 29.4222V41" stroke="#A5A6A6"/>
<path d="M433.146 41C433.146 39.1525 433.383 38.1578 434 36.1367C433.301 36.5867 432.84 37.1092 432.531 37.6879C432.055 38.5793 431.9 39.6726 431.9 41C431.9 39.1906 431.819 37.4641 431.272 35.9039C430.904 34.8583 430.323 33.8775 429.391 33C430.025 35.3343 430.031 38.2786 429.856 40.8374M429.856 40.8458C429.856 39.461 429.768 38.6595 429.408 37.6739C429.205 37.0613 428.525 36.1319 428 35.6759C428.573 37.5827 428.785 38.9941 428.785 41" stroke="#A5A6A6"/>
<path d="M516.854 41C516.854 39.1525 516.617 38.1578 516 36.1367C516.699 36.5867 517.16 37.1092 517.469 37.6879C517.945 38.5793 518.1 39.6726 518.1 41C518.1 39.1906 518.181 37.4641 518.728 35.9039C519.096 34.8583 519.677 33.8775 520.609 33C519.975 35.3343 519.969 38.2786 520.144 40.8374M520.144 40.8458C520.144 39.461 520.232 38.6595 520.592 37.6739C520.795 37.0613 521.475 36.1319 522 35.6759C521.427 37.5827 521.215 38.9941 521.215 41" stroke="#A5A6A6"/>
<path d="M115.862 41C115.862 38.6907 116.178 37.4472 117 34.9209C116.068 35.4833 115.454 36.1364 115.042 36.8599C114.406 37.9741 114.2 39.3408 114.2 41C114.2 38.7383 114.092 36.5802 113.362 34.6299C112.872 33.3229 112.098 32.0968 110.855 31C111.7 33.9178 111.708 37.5983 111.475 40.7968M111.475 40.8072C111.475 39.0762 111.357 38.0744 110.877 36.8424C110.607 36.0766 109.7 34.9149 109 34.3449C109.764 36.7283 110.047 38.4926 110.047 41" stroke="#A5A6A6"/>
<path d="M219.146 41C219.146 39.1525 219.383 38.1578 220 36.1367C219.301 36.5867 218.84 37.1092 218.531 37.6879C218.055 38.5793 217.9 39.6726 217.9 41C217.9 39.1906 217.819 37.4641 217.272 35.9039C216.904 34.8583 216.323 33.8775 215.391 33C216.025 35.3343 216.031 38.2786 215.856 40.8374M215.856 40.8458C215.856 39.461 215.768 38.6595 215.408 37.6739C215.205 37.0613 214.525 36.1319 214 35.6759C214.573 37.5827 214.785 38.9941 214.785 41" stroke="#A5A6A6"/>
<path d="M294.854 41C294.854 39.1525 294.617 38.1578 294 36.1367C294.699 36.5867 295.16 37.1092 295.469 37.6879C295.945 38.5793 296.1 39.6726 296.1 41C296.1 39.1906 296.181 37.4641 296.728 35.9039C297.096 34.8583 297.677 33.8775 298.609 33C297.975 35.3343 297.969 38.2786 298.144 40.8374M298.144 40.8458C298.144 39.461 298.232 38.6595 298.592 37.6739C298.795 37.0613 299.475 36.1319 300 35.6759C299.427 37.5827 299.215 38.9941 299.215 41" stroke="#A5A6A6"/>
<line x1="21" y1="40.5" y2="40.5" stroke="#A5A6A6"/>
<line x1="671" y1="40.5" x2="557" y2="40.5" stroke="#A5A6A6"/>
<line x1="409" y1="40.5" x2="429" y2="40.5" stroke="#A5A6A6"/>
<line x1="433" y1="40.5" x2="490" y2="40.5" stroke="#A5A6A6"/>
<line x1="494" y1="40.5" x2="557" y2="40.5" stroke="#A5A6A6"/>
<line x1="24" y1="40.5" x2="74" y2="40.5" stroke="#A5A6A6"/>
<line x1="79" y1="40.5" x2="111" y2="40.5" stroke="#A5A6A6"/>
<line x1="110" y1="40.5" x2="195" y2="40.5" stroke="#A5A6A6"/>
<line x1="195" y1="40.5" x2="215" y2="40.5" stroke="#A5A6A6"/>
<line x1="219" y1="40.5" x2="276" y2="40.5" stroke="#A5A6A6"/>
<line x1="280" y1="40.5" x2="409" y2="40.5" stroke="#A5A6A6"/>
</g>
<defs>
<clipPath id="clip0_2506_2451">
<rect width="558" height="41" fill="white"/>
</clipPath>
</defs>
</svg>
