<svg width="557" height="27" viewBox="0 0 557 27" fill="none" xmlns="http://www.w3.org/2000/svg">
<g clip-path="url(#clip0_2506_2590)">
<g opacity="0.4">
<line x1="5" y1="26.5" x2="560" y2="26.5" stroke="#A5A6A6"/>
<g clip-path="url(#clip1_2506_2590)">
<g clip-path="url(#clip2_2506_2590)">
<path d="M28.7909 13.9801L31.1852 16.3744C31.5603 16.7495 31.771 17.2582 31.771 17.7886V21.417C31.771 22.5216 30.8756 23.417 29.771 23.417H-0.482654C-1.76882 23.417 -2.72065 22.2206 -2.43144 20.9673L-1.78214 18.1537C-1.61311 17.4212 -1.04767 16.8454 -0.318426 16.6631L4.21069 15.5308C4.37192 15.4905 4.52749 15.4303 4.67382 15.3515L10.4664 12.2324C10.7578 12.0755 11.0836 11.9933 11.4146 11.9933H30.7776" stroke="#A5A6A6"/>
<circle cx="3.97346" cy="3.97346" r="3.47346" transform="matrix(-1 0 0 1 7.93018 18.9469)" fill="#EFF1F3" stroke="#A5A6A6"/>
<circle cx="3.97346" cy="3.97346" r="3.47346" transform="matrix(-1 0 0 1 29.7844 18.9469)" fill="#EFF1F3" stroke="#A5A6A6"/>
</g>
</g>
<g clip-path="url(#clip3_2506_2590)">
<g clip-path="url(#clip4_2506_2590)">
<path d="M203.791 13.9801L206.185 16.3744C206.56 16.7495 206.771 17.2582 206.771 17.7886V21.417C206.771 22.5216 205.876 23.417 204.771 23.417H174.517C173.231 23.417 172.279 22.2206 172.569 20.9673L173.218 18.1537C173.387 17.4212 173.952 16.8454 174.682 16.6631L179.211 15.5308C179.372 15.4905 179.527 15.4303 179.674 15.3515L185.466 12.2324C185.758 12.0755 186.084 11.9933 186.415 11.9933H205.778" stroke="#A5A6A6"/>
<circle cx="3.97346" cy="3.97346" r="3.47346" transform="matrix(-1 0 0 1 182.93 18.9469)" fill="#EFF1F3" stroke="#A5A6A6"/>
<circle cx="3.97346" cy="3.97346" r="3.47346" transform="matrix(-1 0 0 1 204.784 18.9469)" fill="#EFF1F3" stroke="#A5A6A6"/>
</g>
</g>
<path d="M73.1875 0H100.924C101.457 0 101.896 0.417853 101.923 0.950062L102.948 21.4501C102.976 22.0212 102.521 22.5 101.949 22.5H52.3608C51.7671 22.5 51.3041 21.9858 51.3663 21.3953L52.3145 12.387C52.3519 12.0315 52.5763 11.7231 52.9029 11.5779L57.1657 9.68331C57.343 9.60448 57.4937 9.47572 57.5991 9.31275L63.3295 0.456748C63.5137 0.171957 63.8298 0 64.169 0H68.25C68.8023 0 69.25 0.447715 69.25 1V19.125" stroke="#A5A6A6"/>
<circle cx="4.5" cy="4.5" r="4" transform="matrix(-1 0 0 1 97.375 18)" fill="#EFF1F3" stroke="#A5A6A6"/>
<circle cx="4.5" cy="4.5" r="4" transform="matrix(-1 0 0 1 63.625 18)" fill="#EFF1F3" stroke="#A5A6A6"/>
<path d="M368.188 0H395.924C396.457 0 396.896 0.417853 396.923 0.950062L397.948 21.4501C397.976 22.0212 397.521 22.5 396.949 22.5H347.361C346.767 22.5 346.304 21.9858 346.366 21.3953L347.315 12.387C347.352 12.0315 347.576 11.7231 347.903 11.5779L352.166 9.68331C352.343 9.60448 352.494 9.47572 352.599 9.31275L358.329 0.456748C358.514 0.171957 358.83 0 359.169 0H363.25C363.802 0 364.25 0.447715 364.25 1V19.125" stroke="#A5A6A6"/>
<circle cx="4.5" cy="4.5" r="4" transform="matrix(-1 0 0 1 392.375 18)" fill="#EFF1F3" stroke="#A5A6A6"/>
<circle cx="4.5" cy="4.5" r="4" transform="matrix(-1 0 0 1 358.625 18)" fill="#EFF1F3" stroke="#A5A6A6"/>
<path d="M301.188 0H328.924C329.457 0 329.896 0.417853 329.923 0.950062L330.948 21.4501C330.976 22.0212 330.521 22.5 329.949 22.5H280.361C279.767 22.5 279.304 21.9858 279.366 21.3953L280.315 12.387C280.352 12.0315 280.576 11.7231 280.903 11.5779L285.166 9.68331C285.343 9.60448 285.494 9.47572 285.599 9.31275L291.329 0.456748C291.514 0.171957 291.83 0 292.169 0H296.25C296.802 0 297.25 0.447715 297.25 1V19.125" stroke="#A5A6A6"/>
<circle cx="4.5" cy="4.5" r="4" transform="matrix(-1 0 0 1 325.375 18)" fill="#EFF1F3" stroke="#A5A6A6"/>
<circle cx="4.5" cy="4.5" r="4" transform="matrix(-1 0 0 1 291.625 18)" fill="#EFF1F3" stroke="#A5A6A6"/>
<g clip-path="url(#clip5_2506_2590)">
<g clip-path="url(#clip6_2506_2590)">
<path d="M550.791 12.9801L553.185 15.3744C553.56 15.7495 553.771 16.2582 553.771 16.7886V20.417C553.771 21.5216 552.876 22.417 551.771 22.417H521.517C520.231 22.417 519.279 21.2206 519.569 19.9673L520.218 17.1537C520.387 16.4212 520.952 15.8454 521.682 15.6631L526.211 14.5308C526.372 14.4905 526.527 14.4303 526.674 14.3515L532.466 11.2324C532.758 11.0755 533.084 10.9933 533.415 10.9933H552.778" stroke="#A5A6A6"/>
<circle cx="3.97346" cy="3.97346" r="3.47346" transform="matrix(-1 0 0 1 529.93 17.9469)" fill="#EFF1F3" stroke="#A5A6A6"/>
<circle cx="3.97346" cy="3.97346" r="3.47346" transform="matrix(-1 0 0 1 551.784 17.9469)" fill="#EFF1F3" stroke="#A5A6A6"/>
</g>
</g>
<g clip-path="url(#clip7_2506_2590)">
<g clip-path="url(#clip8_2506_2590)">
<path d="M445.791 12.9801L448.185 15.3744C448.56 15.7495 448.771 16.2582 448.771 16.7886V20.417C448.771 21.5216 447.876 22.417 446.771 22.417H416.517C415.231 22.417 414.279 21.2206 414.569 19.9673L415.218 17.1537C415.387 16.4212 415.952 15.8454 416.682 15.6631L421.211 14.5308C421.372 14.4905 421.527 14.4303 421.674 14.3515L427.466 11.2324C427.758 11.0755 428.084 10.9933 428.415 10.9933H447.778" stroke="#A5A6A6"/>
<circle cx="3.97346" cy="3.97346" r="3.47346" transform="matrix(-1 0 0 1 424.93 17.9469)" fill="#EFF1F3" stroke="#A5A6A6"/>
<circle cx="3.97346" cy="3.97346" r="3.47346" transform="matrix(-1 0 0 1 446.784 17.9469)" fill="#EFF1F3" stroke="#A5A6A6"/>
</g>
</g>
<path d="M478.5 17L490.021 16.52C490.338 16.5067 490.652 16.4431 490.949 16.3316L493.991 15.191C494.327 15.0647 494.684 15 495.044 15H500C500.944 15 501.833 15.4446 502.4 16.2V16.2C502.789 16.7193 503 17.3509 503 18V20C503 21.6569 501.657 23 500 23H467.76C466.456 23 465.343 22.0572 465.128 20.771V20.771C465.045 20.2676 465.107 19.7507 465.308 19.2816L465.861 17.9907C466.26 17.0605 467.101 16.394 468.097 16.2181L474.695 15.0538C474.898 15.018 475.096 14.9614 475.288 14.8849L482.5 12" stroke="#A5A6A6"/>
<circle cx="4" cy="4" r="3.5" transform="matrix(-1 0 0 1 500 18)" fill="#EFF1F3" stroke="#A5A6A6"/>
<circle cx="4" cy="4" r="3.5" transform="matrix(-1 0 0 1 476 18)" fill="#EFF1F3" stroke="#A5A6A6"/>
<path d="M239.5 17L251.021 16.52C251.338 16.5067 251.652 16.4431 251.949 16.3316L254.991 15.191C255.327 15.0647 255.684 15 256.044 15H261C261.944 15 262.833 15.4446 263.4 16.2V16.2C263.789 16.7193 264 17.3509 264 18V20C264 21.6569 262.657 23 261 23H228.76C227.456 23 226.343 22.0572 226.128 20.771V20.771C226.045 20.2676 226.107 19.7507 226.308 19.2816L226.861 17.9907C227.26 17.0605 228.101 16.394 229.097 16.2181L235.695 15.0538C235.898 15.018 236.096 14.9614 236.288 14.8849L243.5 12" stroke="#A5A6A6"/>
<circle cx="4" cy="4" r="3.5" transform="matrix(-1 0 0 1 261 18)" fill="#EFF1F3" stroke="#A5A6A6"/>
<circle cx="4" cy="4" r="3.5" transform="matrix(-1 0 0 1 237 18)" fill="#EFF1F3" stroke="#A5A6A6"/>
<path d="M131.5 17L143.021 16.52C143.338 16.5067 143.652 16.4431 143.949 16.3316L146.991 15.191C147.327 15.0647 147.684 15 148.044 15H153C153.944 15 154.833 15.4446 155.4 16.2V16.2C155.789 16.7193 156 17.3509 156 18V20C156 21.6569 154.657 23 153 23H120.76C119.456 23 118.343 22.0572 118.128 20.771V20.771C118.045 20.2676 118.107 19.7507 118.308 19.2816L118.861 17.9907C119.26 17.0605 120.101 16.394 121.097 16.2181L127.695 15.0538C127.898 15.018 128.096 14.9614 128.288 14.8849L135.5 12" stroke="#A5A6A6"/>
<circle cx="4" cy="4" r="3.5" transform="matrix(-1 0 0 1 153 18)" fill="#EFF1F3" stroke="#A5A6A6"/>
<circle cx="4" cy="4" r="3.5" transform="matrix(-1 0 0 1 129 18)" fill="#EFF1F3" stroke="#A5A6A6"/>
</g>
</g>
<defs>
<clipPath id="clip0_2506_2590">
<rect width="557" height="27" fill="white"/>
</clipPath>
<clipPath id="clip1_2506_2590">
<rect width="44" height="16" fill="white" transform="translate(-8 11)"/>
</clipPath>
<clipPath id="clip2_2506_2590">
<rect width="36.7644" height="16.3607" fill="white" transform="matrix(-1 0 0 1 32.7644 11)"/>
</clipPath>
<clipPath id="clip3_2506_2590">
<rect width="40" height="16" fill="white" transform="translate(171 11)"/>
</clipPath>
<clipPath id="clip4_2506_2590">
<rect width="36.7644" height="16.3607" fill="white" transform="matrix(-1 0 0 1 207.764 11)"/>
</clipPath>
<clipPath id="clip5_2506_2590">
<rect width="37" height="16" fill="white" transform="translate(518 10)"/>
</clipPath>
<clipPath id="clip6_2506_2590">
<rect width="36.7644" height="16.3607" fill="white" transform="matrix(-1 0 0 1 554.764 10)"/>
</clipPath>
<clipPath id="clip7_2506_2590">
<rect width="37" height="16" fill="white" transform="translate(413 10)"/>
</clipPath>
<clipPath id="clip8_2506_2590">
<rect width="36.7644" height="16.3607" fill="white" transform="matrix(-1 0 0 1 449.764 10)"/>
</clipPath>
</defs>
</svg>
