<svg width="345" height="33" viewBox="0 0 345 33" fill="none" xmlns="http://www.w3.org/2000/svg">
<g opacity="0.4" clip-path="url(#clip0_2456_2624)">
<path d="M49.1367 33.0242V30.8566V29.1437H39.5461C38.9147 29.1437 38.3365 28.7795 38.0738 28.2155C37.8075 27.6431 37.9028 26.9916 38.3232 26.516L43.9216 20.1766H41.7752C41.1431 20.1766 40.5853 19.8263 40.319 19.2624C40.0534 18.6984 40.141 18.0532 40.5481 17.5782L46.0239 11.2095H43.9994C43.3617 11.2095 42.7864 10.8347 42.5369 10.256C42.2909 9.68644 42.4066 9.02371 42.834 8.56905L50.562 0.338895C50.9853 -0.112965 51.7736 -0.112965 52.1962 0.338895L59.9235 8.56905C60.351 9.02371 60.4673 9.68644 60.2206 10.256C59.9711 10.8347 59.3965 11.2095 58.7588 11.2095H56.7343L62.2094 17.5768C62.6179 18.0525 62.7055 18.6984 62.4392 19.2617C62.1729 19.8263 61.6144 20.1766 60.983 20.1766H58.8366L64.435 26.516C64.8554 26.9916 64.9507 27.6431 64.6845 28.2155C64.4217 28.7795 63.8435 29.1437 63.2122 29.1437H53.6215V30.8566V33.0242" stroke="#A5A6A6"/>
<path d="M6.28695 33.4319V28.2214C5.69931 28.4293 5.07416 28.5394 4.4115 28.5394C1.28575 28.5394 -1.21484 26.0932 -1.21484 23.0354C-1.21484 21.482 -0.589694 20.0877 0.485563 19.0847C0.197994 18.4242 0.035455 17.6904 0.035455 16.9198C0.035455 13.862 2.53605 11.4158 5.6618 11.4158C7.61227 11.4158 9.33768 12.3943 10.3504 13.862H10.663C11.566 13.862 12.4603 14.036 13.2946 14.3741C14.1289 14.7122 14.887 15.2077 15.5255 15.8323C16.1641 16.457 16.6706 17.1986 17.0162 18.0148C17.3618 18.831 17.5396 19.7057 17.5396 20.5892C17.5396 21.4726 17.3618 22.3474 17.0162 23.1635C16.6706 23.9797 16.1641 24.7213 15.5255 25.346C14.887 25.9706 14.1289 26.4662 13.2946 26.8042C12.4603 27.1423 11.566 27.3163 10.663 27.3163C10.0378 27.3163 9.4127 27.2307 8.78755 27.0595V33.4319" stroke="#A5A6A6"/>
<path d="M213.728 33.4319V25.7126C212.859 26.0207 211.935 26.1837 210.955 26.1837C206.335 26.1837 202.638 22.5597 202.638 18.0296C202.638 15.7284 203.562 13.6626 205.152 12.1768C204.727 11.1983 204.486 10.1111 204.486 8.96949C204.486 4.43942 208.183 0.815369 212.804 0.815369C215.687 0.815369 218.238 2.26499 219.735 4.43942H220.197C221.532 4.43942 222.854 4.6972 224.087 5.19805C225.32 5.6989 226.441 6.433 227.385 7.35844C228.329 8.28388 229.078 9.38254 229.588 10.5917C230.099 11.8008 230.362 13.0968 230.362 14.4056C230.362 15.7143 230.099 17.0103 229.588 18.2195C229.078 19.4286 228.329 20.5273 227.385 21.4527C226.441 22.3781 225.32 23.1122 224.087 23.6131C222.854 24.1139 221.532 24.3717 220.197 24.3717C219.273 24.3717 218.348 24.2449 217.424 23.9912V33.4319" stroke="#A5A6A6"/>
<path d="M342.193 33.4319C342.193 31.9254 342.386 31.1143 342.889 29.4663C342.319 29.8332 341.944 30.2592 341.692 30.7311C341.303 31.458 341.177 32.3495 341.177 33.4319C341.177 31.9565 341.111 30.5487 340.664 29.2765C340.365 28.4239 339.891 27.6241 339.131 26.9086C339.648 28.812 339.653 31.2128 339.51 33.2993M339.51 33.3061C339.51 32.1769 339.438 31.5234 339.145 30.7197C338.979 30.2202 338.425 29.4624 337.997 29.0906C338.464 30.6453 338.637 31.7962 338.637 33.4319" stroke="#A5A6A6"/>
<path d="M83.4752 33.4319C83.4752 31.5488 83.7326 30.5349 84.4032 28.4749C83.6431 28.9335 83.1426 29.4661 82.8066 30.056C82.2884 30.9645 82.1204 32.0789 82.1204 33.4319C82.1204 31.5877 82.0323 29.8279 81.4369 28.2376C81.0372 27.1719 80.4059 26.1721 79.3925 25.2778C80.0814 27.657 80.0882 30.6581 79.898 33.2662M79.898 33.2747C79.898 31.8632 79.8017 31.0463 79.4108 30.0417C79.19 29.4173 78.4509 28.47 77.8799 28.0053C78.5031 29.9487 78.7334 31.3874 78.7334 33.4319" stroke="#A5A6A6"/>
<path d="M167.694 33.4319C167.694 31.9254 167.888 31.1143 168.391 29.4663C167.82 29.8332 167.445 30.2592 167.193 30.7311C166.804 31.458 166.678 32.3495 166.678 33.4319C166.678 31.9565 166.612 30.5487 166.166 29.2765C165.866 28.4239 165.393 27.6241 164.633 26.9086C165.149 28.812 165.154 31.2128 165.012 33.2993M165.012 33.3061C165.012 32.1769 164.939 31.5234 164.646 30.7197C164.481 30.2202 163.926 29.4624 163.498 29.0906C163.965 30.6453 164.138 31.7962 164.138 33.4319" stroke="#A5A6A6"/>
<path d="M229.427 33.4319C229.427 31.9254 229.234 31.1143 228.731 29.4663C229.301 29.8332 229.677 30.2592 229.929 30.7311C230.317 31.458 230.443 32.3495 230.443 33.4319C230.443 31.9565 230.509 30.5487 230.956 29.2765C231.256 28.4239 231.729 27.6241 232.489 26.9086C231.972 28.812 231.967 31.2128 232.11 33.2993M232.11 33.3061C232.11 32.1769 232.182 31.5234 232.475 30.7197C232.641 30.2202 233.195 29.4624 233.624 29.0906C233.156 30.6453 232.983 31.7962 232.983 33.4319" stroke="#A5A6A6"/>
<line x1="6.12354" y1="33.1165" x2="-11.0001" y2="33.1165" stroke="#A5A6A6"/>
<line x1="322.503" y1="32.9319" x2="338.812" y2="32.9319" stroke="#A5A6A6"/>
<line x1="342.073" y1="32.9319" x2="388.552" y2="32.9319" stroke="#A5A6A6"/>
<line x1="8.56982" y1="32.9319" x2="49.3404" y2="32.9319" stroke="#A5A6A6"/>
<line x1="53.4175" y1="32.9319" x2="79.5107" y2="32.9319" stroke="#A5A6A6"/>
<line x1="78.6953" y1="32.9319" x2="148.005" y2="32.9319" stroke="#A5A6A6"/>
<line x1="148.005" y1="32.9319" x2="164.314" y2="32.9319" stroke="#A5A6A6"/>
<line x1="167.575" y1="32.9319" x2="214.054" y2="32.9319" stroke="#A5A6A6"/>
<line x1="217.315" y1="32.9319" x2="322.504" y2="32.9319" stroke="#A5A6A6"/>
</g>
<defs>
<clipPath id="clip0_2456_2624">
<rect width="345" height="33" fill="white"/>
</clipPath>
</defs>
</svg>
