<svg width="345" height="27" viewBox="0 0 345 27" fill="none" xmlns="http://www.w3.org/2000/svg">
<g opacity="0.4" clip-path="url(#clip0_2459_542)">
<line x1="-13" y1="26.5" x2="557" y2="26.5" stroke="#A5A6A6"/>
<g clip-path="url(#clip1_2459_542)">
<path d="M23.7914 13.9801L26.1857 16.3744C26.5608 16.7495 26.7715 17.2582 26.7715 17.7886V21.417C26.7715 22.5216 25.8761 23.417 24.7715 23.417H-5.48217C-6.76834 23.417 -7.72016 22.2206 -7.43095 20.9673L-6.78165 18.1537C-6.61262 17.4212 -6.04718 16.8454 -5.31794 16.6631L-0.788824 15.5308C-0.627597 15.4905 -0.472021 15.4303 -0.325696 15.3515L5.46686 12.2324C5.75828 12.0755 6.08409 11.9933 6.41506 11.9933H25.7781" stroke="#A5A6A6"/>
<circle cx="3.97346" cy="3.97346" r="3.47346" transform="matrix(-1 0 0 1 2.93066 18.9469)" fill="#EFF1F3" stroke="#A5A6A6"/>
<circle cx="3.97346" cy="3.97346" r="3.47346" transform="matrix(-1 0 0 1 24.7847 18.9469)" fill="#EFF1F3" stroke="#A5A6A6"/>
</g>
<g clip-path="url(#clip2_2459_542)">
<path d="M144.791 13.9801L147.186 16.3744C147.561 16.7495 147.771 17.2582 147.771 17.7886V21.417C147.771 22.5216 146.876 23.417 145.771 23.417H115.518C114.232 23.417 113.28 22.2206 113.569 20.9673L114.218 18.1537C114.387 17.4212 114.953 16.8454 115.682 16.6631L120.211 15.5308C120.372 15.4905 120.528 15.4303 120.674 15.3515L126.467 12.2324C126.758 12.0755 127.084 11.9933 127.415 11.9933H146.778" stroke="#A5A6A6"/>
<circle cx="3.97346" cy="3.97346" r="3.47346" transform="matrix(-1 0 0 1 123.931 18.9469)" fill="#EFF1F3" stroke="#A5A6A6"/>
<circle cx="3.97346" cy="3.97346" r="3.47346" transform="matrix(-1 0 0 1 145.785 18.9469)" fill="#EFF1F3" stroke="#A5A6A6"/>
</g>
<g clip-path="url(#clip3_2459_542)">
<path d="M361.791 13.9801L364.186 16.3744C364.561 16.7495 364.771 17.2582 364.771 17.7886V21.417C364.771 22.5216 363.876 23.417 362.771 23.417H332.518C331.232 23.417 330.28 22.2206 330.569 20.9673L331.218 18.1537C331.387 17.4212 331.953 16.8454 332.682 16.6631L337.211 15.5308C337.372 15.4905 337.528 15.4303 337.674 15.3515L343.467 12.2324C343.758 12.0755 344.084 11.9933 344.415 11.9933H363.778" stroke="#A5A6A6"/>
<circle cx="3.97346" cy="3.97346" r="3.47346" transform="matrix(-1 0 0 1 340.931 18.9469)" fill="#EFF1F3" stroke="#A5A6A6"/>
</g>
<path d="M65.9375 0H93.6738C94.2066 0 94.6459 0.417853 94.6725 0.950062L95.6975 21.4501C95.7261 22.0212 95.2706 22.5 94.6988 22.5H45.1108C44.5171 22.5 44.0541 21.9858 44.1163 21.3953L45.0645 12.387C45.1019 12.0315 45.3263 11.7231 45.6529 11.5779L49.9157 9.68331C50.093 9.60448 50.2437 9.47572 50.3491 9.31275L56.0795 0.456748C56.2637 0.171957 56.5798 0 56.919 0H61C61.5523 0 62 0.447715 62 1V19.125" stroke="#A5A6A6"/>
<circle cx="4.5" cy="4.5" r="4" transform="matrix(-1 0 0 1 90.125 18)" fill="#EFF1F3" stroke="#A5A6A6"/>
<circle cx="4.5" cy="4.5" r="4" transform="matrix(-1 0 0 1 56.375 18)" fill="#EFF1F3" stroke="#A5A6A6"/>
<path d="M190.938 0H218.674C219.207 0 219.646 0.417853 219.673 0.950062L220.698 21.4501C220.726 22.0212 220.271 22.5 219.699 22.5H170.111C169.517 22.5 169.054 21.9858 169.116 21.3953L170.065 12.387C170.102 12.0315 170.326 11.7231 170.653 11.5779L174.916 9.68331C175.093 9.60448 175.244 9.47572 175.349 9.31275L181.079 0.456748C181.264 0.171957 181.58 0 181.919 0H186C186.552 0 187 0.447715 187 1V19.125" stroke="#A5A6A6"/>
<circle cx="4.5" cy="4.5" r="4" transform="matrix(-1 0 0 1 215.125 18)" fill="#EFF1F3" stroke="#A5A6A6"/>
<circle cx="4.5" cy="4.5" r="4" transform="matrix(-1 0 0 1 181.375 18)" fill="#EFF1F3" stroke="#A5A6A6"/>
<g clip-path="url(#clip4_2459_542)">
<path d="M315.791 12.9801L318.186 15.3744C318.561 15.7495 318.771 16.2582 318.771 16.7886V20.417C318.771 21.5216 317.876 22.417 316.771 22.417H286.518C285.232 22.417 284.28 21.2206 284.569 19.9673L285.218 17.1537C285.387 16.4212 285.953 15.8454 286.682 15.6631L291.211 14.5308C291.372 14.4905 291.528 14.4303 291.674 14.3515L297.467 11.2324C297.758 11.0755 298.084 10.9933 298.415 10.9933H317.778" stroke="#A5A6A6"/>
<circle cx="3.97346" cy="3.97346" r="3.47346" transform="matrix(-1 0 0 1 294.931 17.9469)" fill="#EFF1F3" stroke="#A5A6A6"/>
<circle cx="3.97346" cy="3.97346" r="3.47346" transform="matrix(-1 0 0 1 316.784 17.9469)" fill="#EFF1F3" stroke="#A5A6A6"/>
</g>
<path d="M249.5 17L261.021 16.52C261.338 16.5067 261.652 16.4431 261.949 16.3316L264.991 15.191C265.327 15.0647 265.684 15 266.044 15H271C271.944 15 272.833 15.4446 273.4 16.2V16.2C273.789 16.7193 274 17.3509 274 18V20C274 21.6569 272.657 23 271 23H238.76C237.456 23 236.343 22.0572 236.128 20.771V20.771C236.045 20.2676 236.107 19.7507 236.308 19.2816L236.861 17.9907C237.26 17.0605 238.101 16.394 239.097 16.2181L245.695 15.0538C245.898 15.018 246.096 14.9614 246.288 14.8849L253.5 12" stroke="#A5A6A6"/>
<circle cx="4" cy="4" r="3.5" transform="matrix(-1 0 0 1 271 18)" fill="#EFF1F3" stroke="#A5A6A6"/>
<circle cx="4" cy="4" r="3.5" transform="matrix(-1 0 0 1 247 18)" fill="#EFF1F3" stroke="#A5A6A6"/>
</g>
<defs>
<clipPath id="clip0_2459_542">
<rect width="345" height="27" fill="white"/>
</clipPath>
<clipPath id="clip1_2459_542">
<rect width="36.7644" height="16.3607" fill="white" transform="matrix(-1 0 0 1 27.7646 11)"/>
</clipPath>
<clipPath id="clip2_2459_542">
<rect width="36.7644" height="16.3607" fill="white" transform="matrix(-1 0 0 1 148.765 11)"/>
</clipPath>
<clipPath id="clip3_2459_542">
<rect width="36.7644" height="16.3607" fill="white" transform="matrix(-1 0 0 1 365.765 11)"/>
</clipPath>
<clipPath id="clip4_2459_542">
<rect width="36.7644" height="16.3607" fill="white" transform="matrix(-1 0 0 1 319.765 10)"/>
</clipPath>
</defs>
</svg>
