<svg xmlns="http://www.w3.org/2000/svg" width="62" height="60" fill="none" viewBox="0 0 62 60"><path fill="#056370" d="M61.838 31.879q.052-.518.042-1.038c.002-4.671-.701-8.247-2.603-12.485l-10.94 5.201c.944 2.371 1.427 4.72 1.421 7.284q.01.52-.042 1.037z"/><path stroke="#056370" stroke-width="2.68154" d="M33.983 2.079c4.183.293 7.685 1.408 11.363 3.297l-4.8 7.064c-2.21-1.121-4.43-1.805-6.958-2.079z"/><path fill="#056370" d="M42.086 15.236c2.47 1.743 4.372 4.144 5.73 6.76l10.94-5.2c-2.418-4.417-5.04-8.107-9.377-10.922z"/><path stroke="#056370" stroke-width="2.68154" d="M29.284 10.553a17.7 17.7 0 0 0-6.325 1.856L18.45 5.312c3.308-1.75 7.171-2.952 10.833-3.235zm-9.888 4.375a19 19 0 0 0-4.8 4.792l-8.09-4.223c2.115-3.065 4.908-5.722 8.22-7.803zm-6.67 8.815c-.905 2.352-1.693 5.446-1.748 7.835H1.756c.039-3.96.895-7.866 2.515-11.478z"/><path fill="#056370" stroke="#056370" stroke-width="1.34077" d="m43.419 29.295-9.324.825.46-3.851z"/><path fill="#056370" stroke="#056370" stroke-miterlimit="10" stroke-width="2.68154" d="M30.625 31.878a4.164 4.164 0 0 0 4.167-4.16 4.164 4.164 0 0 0-4.167-4.161 4.164 4.164 0 0 0-4.168 4.16 4.164 4.164 0 0 0 4.168 4.161Z"/><path fill="#056370" d="M.41 37.16h61.472v2.08H.41zM5.998 43l10.327 5.166-9.637 6.36zm24.855 15.999-.009 1zm-19.897-8.488.725-.689a25.7 25.7 0 0 0 4.719 3.9l-.541.841-.541.841A27.7 27.7 0 0 1 10.23 51.2zm4.903 4.052.541-.84c4.262 2.743 9.295 4.233 14.46 4.276l-.007 1-.009 1c-5.537-.046-10.94-1.643-15.526-4.595zM30.853 59l.008-1c5.166.043 10.226-1.364 14.538-4.038l.527.85.527.85c-4.64 2.876-10.071 4.384-15.609 4.338zm15.073-4.187-.527-.85c4.312-2.673 7.68-6.49 9.687-10.96l.912.41.913.41c-2.176 4.846-5.818 8.963-10.458 11.84z"/></svg>