<svg xmlns="http://www.w3.org/2000/svg" width="76" height="76" fill="none" viewBox="0 0 76 76"><path stroke="#056370" stroke-miterlimit="10" stroke-width="2.12423" d="M27.785 16.17h12.581M15.862 27.154v17.664m18.236-24.39V16.17M20.071 35.961h-4.21M58.75 43.07V32.093h-4.71v-2.14c0-.558-.238-1.095-.664-1.495a2.43 2.43 0 0 0-1.614-.643h-7.715v-4.04c0-.567-.245-1.111-.682-1.512a2.44 2.44 0 0 0-1.648-.627H28.1a2.43 2.43 0 0 0-1.614.643c-.425.4-.664.937-.664 1.496v2.33h-2.123a2.44 2.44 0 0 0-1.647.626 2.05 2.05 0 0 0-.682 1.512V45.59a2.06 2.06 0 0 0 .7 1.481c.436.391 1.02.61 1.63.61h2.692l5.592 5.18h10.665"/><path fill="#056370" stroke="#EFF1F3" stroke-width="1.06212" d="M40.914 43.353a.38.38 0 0 1 .111-.272l.08-.062.005-.002 10.98-6.506.037-.022.033-.028a.27.27 0 0 1 .348 0l.032.028.038.022 10.979 6.505.005.003q.045.026.08.062l.061.08q.026.045.038.094l.013.098v3.78c.052 3.44-.869 6.82-2.65 9.755l-.368.582a18.33 18.33 0 0 1-8.227 6.815h-.462a18.44 18.44 0 0 1-7.758-6.284l-.385-.567a18.4 18.4 0 0 1-2.987-9.618l-.003-.683z"/><path fill="#fff" fill-rule="evenodd" d="M50.603 44.364a.6.6 0 0 0-.366.126.63.63 0 0 0-.22.326l-2.136 7.53a.64.64 0 0 0 .098.553.61.61 0 0 0 .488.251h2.36l-.525 4.315a.64.64 0 0 0 .084.404.61.61 0 0 0 .71.272.6.6 0 0 0 .32-.25l4.883-7.53a.64.64 0 0 0-.194-.887.6.6 0 0 0-.314-.09h-2.17l1.52-4.172a.64.64 0 0 0-.07-.578.62.62 0 0 0-.5-.27z" clip-rule="evenodd"/></svg>