<svg xmlns="http://www.w3.org/2000/svg" width="48" height="46" fill="none" viewBox="0 0 48 46"><path fill="#056370" d="M47.357 24.077q.04-.394.031-.789c.002-3.551-.532-6.269-1.975-9.49L37.11 17.75c.716 1.803 1.083 3.588 1.078 5.537q.008.396-.031.788z"/><path stroke="#056370" stroke-width="2.03835" d="M26.22 1.426c3.172.223 5.83 1.07 8.62 2.504L31.198 9.3a14.9 14.9 0 0 0-5.278-1.58z"/><path fill="#056370" d="M32.367 11.426c1.875 1.325 3.318 3.15 4.348 5.14l8.302-3.954c-1.835-3.358-3.824-6.163-7.116-8.302z"/><path stroke="#056370" stroke-width="2.03835" d="M22.65 7.866a13.4 13.4 0 0 0-4.798 1.41l-3.42-5.394c2.51-1.33 5.44-2.24 8.218-2.456zm-7.503 3.327a14.4 14.4 0 0 0-3.642 3.64l-6.136-3.21c1.604-2.329 3.723-4.348 6.235-5.93zm-5.061 6.7c-.687 1.787-1.285 4.139-1.327 5.954H1.764c.029-3.01.678-5.978 1.907-8.723z"/><path fill="#056370" stroke="#056370" stroke-width="1.01917" d="m33.38 22.112-7.076.628.35-2.928z"/><path fill="#056370" stroke="#056370" stroke-miterlimit="10" stroke-width="2.03835" d="M23.67 24.076a3.163 3.163 0 1 0 0-6.325 3.163 3.163 0 0 0 0 6.325Z"/><path fill="#056370" d="M.74 28.09h46.65v1.582H.74zm4.282 4.44 7.85 3.927-7.326 4.835zm7.495 8.79.412-.639zm11.398 3.372-.007.76zm11.457-3.183.4.646zM8.79 38.24l.551-.524a19.5 19.5 0 0 0 3.588 2.965l-.412.64-.411.639a21 21 0 0 1-3.867-3.197zm3.727 3.08.412-.639c3.24 2.086 7.065 3.218 10.992 3.25l-.006.76-.007.761c-4.21-.035-8.316-1.249-11.802-3.492zm11.398 3.372.006-.76c3.927.032 7.773-1.037 11.05-3.07l.401.647.4.646c-3.526 2.186-7.654 3.332-11.864 3.297zm11.457-3.183-.4-.646c3.278-2.032 5.838-4.933 7.363-8.33l.694.31.693.312c-1.654 3.684-4.422 6.814-7.95 9z"/></svg>