<svg xmlns="http://www.w3.org/2000/svg" width="57" height="52" fill="none" viewBox="0 0 57 52"><path stroke="#056370" stroke-miterlimit="10" stroke-width="2.12423" d="M13.941 1.214h12.581M2.018 12.199v17.663M20.254 5.473V1.214M6.228 21.006h-4.21m42.888 7.109V17.136h-4.711v-2.139c0-.559-.239-1.096-.664-1.495a2.43 2.43 0 0 0-1.614-.644h-7.715v-4.04c0-.567-.246-1.11-.682-1.512a2.44 2.44 0 0 0-1.648-.626H14.255a2.43 2.43 0 0 0-1.614.643 2.05 2.05 0 0 0-.664 1.496v2.329H9.854a2.44 2.44 0 0 0-1.647.626 2.05 2.05 0 0 0-.683 1.512v17.348a2.06 2.06 0 0 0 .7 1.482 2.45 2.45 0 0 0 1.63.61h2.693l5.591 5.18h10.666"/><path fill="#056370" stroke="#EFF1F3" stroke-width="1.91099" d="M41.456 25.151c2.87 0 5.628 1.064 7.744 2.97l.414.39a11.43 11.43 0 0 1 3.377 8.107 11.4 11.4 0 0 1-1.943 6.367 11.5 11.5 0 0 1-4.784 4.055l-.392.17a11.6 11.6 0 0 1-6.247.728l-.42-.075a11.56 11.56 0 0 1-5.908-3.14 11.45 11.45 0 0 1-3.065-5.454l-.09-.416a11.4 11.4 0 0 1 .5-6.226l.156-.396a11.5 11.5 0 0 1 3.896-4.903l.35-.242a11.6 11.6 0 0 1 5.984-1.927z"/><path fill="#EFF1F3" d="M42.22 35.613V29.93h-1.725v7.644h6.726v-1.96z"/><path fill="#056370" d="m31.897 48.14.28-.388zm5.694 2.5-.097.468zm6.227-.036.102.467zm5.664-2.566-.284-.385zm4.1-4.645-.416-.234zm1.816-5.904.476.041zm-.79-6.121.45-.16zm-3.257-5.26.53 5.49 4.49-3.204zm-23.61 17.436-.414.238a15.2 15.2 0 0 0 4.29 4.746l.28-.388.28-.388a14.3 14.3 0 0 1-4.022-4.447zm4.156 4.596-.28.388a15.4 15.4 0 0 0 5.877 2.58l.097-.467.096-.468a14.4 14.4 0 0 1-5.51-2.42zm5.694 2.5-.097.468a15.4 15.4 0 0 0 6.426-.037l-.102-.467-.102-.466c-1.985.434-4.04.446-6.029.035zm6.227-.036.102.467a15.4 15.4 0 0 0 5.845-2.65l-.283-.383-.284-.385a14.4 14.4 0 0 1-5.482 2.485zm5.664-2.566.283.384A15.2 15.2 0 0 0 54 43.627l-.416-.234-.417-.234a14.3 14.3 0 0 1-3.968 4.494zm4.1-4.645.417.234a15.1 15.1 0 0 0 1.875-6.097l-.476-.04-.476-.041a14.1 14.1 0 0 1-1.756 5.71zm1.816-5.904.476.041a15.05 15.05 0 0 0-.816-6.322l-.45.16-.45.16c.674 1.898.935 3.916.764 5.92zm-.79-6.121.45-.16a15 15 0 0 0-.784-1.818l-.426.218-.425.217q.423.826.734 1.703z"/></svg>