<svg xmlns="http://www.w3.org/2000/svg" width="91" height="91" fill="none" viewBox="0 0 91 91"><path stroke="#056370" stroke-miterlimit="10" stroke-width="2.57143" d="M32.776 19.258h15.145M18.423 32.555v21.382m21.952-29.524v-5.155M23.49 43.216h-5.067m51.629 8.606v-13.29H64.38v-2.59a2.5 2.5 0 0 0-.799-1.81 2.92 2.92 0 0 0-1.943-.778h-9.287v-4.89a2.5 2.5 0 0 0-.821-1.831 2.93 2.93 0 0 0-1.983-.759H33.155a2.92 2.92 0 0 0-1.943.779 2.5 2.5 0 0 0-.8 1.81v2.82h-2.555c-.744 0-1.457.272-1.983.758a2.5 2.5 0 0 0-.822 1.83v21a2.5 2.5 0 0 0 .843 1.794 2.93 2.93 0 0 0 1.962.738h3.241l6.731 6.271h12.84"/><path fill="#056370" d="m76.164 51.204-13.217-7.876a.96.96 0 0 0-1.239 0l-13.216 7.876a1.1 1.1 0 0 0-.55.967v4.56a23 23 0 0 0 3.703 12.83 22.87 22.87 0 0 0 10.2 8.584h.827a22.74 22.74 0 0 0 10.305-8.539 22.86 22.86 0 0 0 3.737-12.876v-4.56a1.11 1.11 0 0 0-.55-.966"/><path fill="#fff" fill-rule="evenodd" d="M60.245 53.388a.72.72 0 0 0-.44.152.76.76 0 0 0-.265.395l-2.572 9.116a.78.78 0 0 0 .118.668q.104.143.26.224c.101.053.214.08.328.08h2.84l-.631 5.224a.78.78 0 0 0 .1.489.74.74 0 0 0 .373.318c.155.06.325.064.483.01a.74.74 0 0 0 .385-.301l5.877-9.117a.776.776 0 0 0-.233-1.073.7.7 0 0 0-.378-.108h-2.613l1.831-5.051a.79.79 0 0 0-.084-.7.74.74 0 0 0-.263-.24.7.7 0 0 0-.34-.086z" clip-rule="evenodd"/></svg>