<svg xmlns="http://www.w3.org/2000/svg" width="69" height="64" fill="none" viewBox="0 0 69 64"><path stroke="#056370" stroke-miterlimit="10" stroke-width="2.60757" d="M16.58 1.947h15.384M2 15.432v21.682M24.299 7.175V1.947M7.148 26.242H2.001m52.442 8.728V21.491h-5.761v-2.625c0-.687-.291-1.346-.812-1.837a2.97 2.97 0 0 0-1.974-.789h-9.433v-4.959c0-.696-.3-1.364-.834-1.856a2.98 2.98 0 0 0-2.014-.77h-16.65a2.97 2.97 0 0 0-1.974.79c-.52.49-.812 1.15-.812 1.836v2.859h-2.596c-.755 0-1.48.277-2.014.769a2.53 2.53 0 0 0-.835 1.856V38.06c.017.687.324 1.34.857 1.82a2.98 2.98 0 0 0 1.992.748h3.292l6.838 6.359h13.041"/><path fill="#056370" stroke="#EFF1F3" stroke-width="2.3458" d="M50.224 31.332c3.623 0 7.102 1.392 9.72 3.878l.25.245a14.06 14.06 0 0 1 1.753 17.77 14.1 14.1 0 0 1-6.327 5.185 14.13 14.13 0 0 1-14.992-2.69l-.376-.362a14.07 14.07 0 0 1-3.747-6.697l-.111-.51a14.06 14.06 0 0 1 .61-7.645l.192-.485c1-2.41 2.65-4.494 4.764-6.02l.429-.296A14.1 14.1 0 0 1 49.7 31.34z"/><path fill="#EFF1F3" d="M51.157 44.173v-6.977H49.05v9.383h8.224v-2.406z"/><path fill="#056370" d="m38.776 59.55.343-.475zm6.989 3.07.119-.575zm7.645-.045.125.573zm6.952-3.15.348.471zm7.262-12.948.584.05zm-.97-7.515.553-.197zm-3.998-6.458.65 6.741 5.513-3.933zM33.675 53.909l-.508.293a18.7 18.7 0 0 0 5.266 5.825l.343-.476.343-.475a17.5 17.5 0 0 1-4.936-5.46zm5.1 5.642-.342.476a18.9 18.9 0 0 0 7.213 3.168l.119-.574.119-.575a17.7 17.7 0 0 1-6.765-2.97zm6.99 3.07-.119.574c2.603.538 5.292.523 7.889-.046l-.125-.573-.126-.573a17.8 17.8 0 0 1-7.4.043zm7.645-.045.125.573a18.9 18.9 0 0 0 7.175-3.252l-.348-.471-.349-.472a17.7 17.7 0 0 1-6.729 3.05zm6.952-3.15.348.471a18.7 18.7 0 0 0 5.197-5.886l-.511-.287-.512-.287a17.5 17.5 0 0 1-4.87 5.517zm5.034-5.702.511.287a18.5 18.5 0 0 0 2.301-7.484l-.584-.05-.584-.05a17.3 17.3 0 0 1-2.156 7.01zm2.228-7.246.584.05a18.5 18.5 0 0 0-1.001-7.761l-.553.196-.553.196a17.3 17.3 0 0 1 .939 7.269zm-.97-7.515.553-.197a19 19 0 0 0-.963-2.23l-.522.266-.522.267q.519 1.013.901 2.09z"/></svg>