<svg xmlns="http://www.w3.org/2000/svg" width="558" height="41" fill="none" viewBox="0 0 558 41"><g stroke="#A5A6A6" clip-path="url(#a)" opacity="0.4"><path d="M73.75 40.5v-4.758H61.988a1.99 1.99 0 0 1-1.805-1.14 1.9 1.9 0 0 1 .306-2.083l6.865-7.775h-2.632c-.775 0-1.46-.43-1.786-1.121a1.9 1.9 0 0 1 .281-2.065l6.716-7.811H67.45a1.95 1.95 0 0 1-1.794-1.17 1.91 1.91 0 0 1 .364-2.068L75.499.416c.519-.555 1.486-.555 2.004 0l9.477 10.093c.524.557.666 1.37.364 2.069a1.95 1.95 0 0 1-1.793 1.169h-2.483l6.715 7.809c.501.583.608 1.375.282 2.066a1.95 1.95 0 0 1-1.786 1.122h-2.632l6.865 7.775c.516.583.633 1.382.306 2.084a1.99 1.99 0 0 1-1.805 1.138H79.25V40.5M21.2 41v-6.39c-.72.255-1.487.39-2.3.39-3.833 0-6.9-3-6.9-6.75 0-1.905.767-3.615 2.085-4.845a6.65 6.65 0 0 1-.552-2.655c0-3.75 3.067-6.75 6.9-6.75 2.392 0 4.508 1.2 5.75 3h.384c1.107 0 2.204.213 3.227.628a8.5 8.5 0 0 1 2.736 1.788 8.2 8.2 0 0 1 1.828 2.677 8.1 8.1 0 0 1 0 6.314 8.2 8.2 0 0 1-1.828 2.677 8.5 8.5 0 0 1-2.736 1.788 8.6 8.6 0 0 1-5.527.313V41M489.6 41v-9.467a10.1 10.1 0 0 1-3.4.578c-5.667 0-10.2-4.444-10.2-10 0-2.822 1.133-5.355 3.083-7.178a9.85 9.85 0 0 1-.816-3.933c0-5.556 4.533-10 10.2-10a10.32 10.32 0 0 1 8.5 4.444h.566c1.637 0 3.259.317 4.771.93a12.5 12.5 0 0 1 4.045 2.65 12.2 12.2 0 0 1 2.702 3.965 12 12 0 0 1 0 9.355 12.2 12.2 0 0 1-2.702 3.965 12.5 12.5 0 0 1-4.045 2.65c-1.512.614-3.134.93-4.771.93a12.8 12.8 0 0 1-3.4-.467V41M275.6 41v-9.467a10.1 10.1 0 0 1-3.4.578c-5.667 0-10.2-4.444-10.2-10 0-2.822 1.133-5.355 3.083-7.178a9.85 9.85 0 0 1-.816-3.933c0-5.556 4.533-10 10.2-10a10.32 10.32 0 0 1 8.5 4.444h.566c1.637 0 3.259.317 4.771.93a12.5 12.5 0 0 1 4.045 2.65 12.2 12.2 0 0 1 2.702 3.965 12 12 0 0 1 0 9.355 12.2 12.2 0 0 1-2.702 3.965 12.5 12.5 0 0 1-4.045 2.65c-1.512.614-3.134.93-4.771.93a12.8 12.8 0 0 1-3.4-.467V41m153.013 0c0-1.847.237-2.842.854-4.863-.699.45-1.16.972-1.469 1.55-.476.892-.631 1.986-.631 3.313 0-1.81-.081-3.536-.628-5.096A7.16 7.16 0 0 0 429.391 33c.634 2.334.64 5.279.465 7.837m0 .009c0-1.385-.088-2.186-.448-3.172-.203-.613-.883-1.542-1.408-1.998.573 1.907.785 3.318.785 5.324m88.069 0c0-1.847-.237-2.842-.854-4.863.699.45 1.16.972 1.469 1.55.476.892.631 1.986.631 3.313 0-1.81.081-3.536.628-5.096A7.16 7.16 0 0 1 520.609 33c-.634 2.334-.64 5.279-.465 7.837m0 .009c0-1.385.088-2.186.448-3.172.203-.613.883-1.542 1.408-1.998-.573 1.907-.785 3.318-.785 5.324m-405.353 0c0-2.31.316-3.553 1.138-6.08-.932.563-1.546 1.216-1.958 1.94-.636 1.114-.842 2.48-.842 4.14 0-2.262-.108-4.42-.838-6.37a8.9 8.9 0 0 0-2.507-3.63c.845 2.918.853 6.598.62 9.797m0 .01c0-1.73-.118-2.733-.598-3.965-.27-.765-1.177-1.927-1.877-2.497.764 2.383 1.047 4.148 1.047 6.655m109.099 0c0-1.847.237-2.842.854-4.863-.699.45-1.16.972-1.469 1.55-.476.892-.631 1.986-.631 3.313 0-1.81-.081-3.536-.628-5.096A7.16 7.16 0 0 0 215.391 33c.634 2.334.64 5.279.465 7.837m0 .009c0-1.385-.088-2.186-.448-3.172-.203-.613-.883-1.542-1.408-1.998.573 1.907.785 3.318.785 5.324m80.069 0c0-1.847-.237-2.842-.854-4.863.699.45 1.16.972 1.469 1.55.476.892.631 1.986.631 3.313 0-1.81.081-3.536.628-5.096A7.16 7.16 0 0 1 298.609 33c-.634 2.334-.64 5.279-.465 7.837m0 .009c0-1.385.088-2.186.448-3.172.203-.613.883-1.542 1.408-1.998-.573 1.907-.785 3.318-.785 5.324M21 40.5H0m671 0H557m-148 0h20m4 0h57m4 0h63m-533 0h50m5 0h32m-1 0h85m0 0h20m4 0h57m4 0h129"/></g><defs><clipPath id="a"><path fill="#fff" d="M0 0h558v41H0z"/></clipPath></defs></svg>