<svg xmlns="http://www.w3.org/2000/svg" width="345" height="33" fill="none" viewBox="0 0 345 33"><g stroke="#A5A6A6" clip-path="url(#a)" opacity="0.4"><path d="M49.137 33.024v-3.88h-9.59c-.632 0-1.21-.364-1.473-.928a1.55 1.55 0 0 1 .25-1.7l5.598-6.34h-2.147c-.632 0-1.19-.35-1.456-.914a1.55 1.55 0 0 1 .23-1.684l5.475-6.368h-2.025a1.59 1.59 0 0 1-1.462-.954 1.56 1.56 0 0 1 .297-1.687L50.562.34c.423-.452 1.212-.452 1.634 0l7.727 8.23c.428.455.544 1.117.298 1.687-.25.579-.824.954-1.462.954h-2.025l5.475 6.367c.409.475.496 1.121.23 1.685a1.59 1.59 0 0 1-1.456.915h-2.146l5.598 6.339a1.55 1.55 0 0 1 .25 1.7 1.63 1.63 0 0 1-1.473.928h-9.59v3.88m-47.335.407v-5.21a5.6 5.6 0 0 1-1.875.317c-3.126 0-5.627-2.446-5.627-5.504 0-1.553.625-2.947 1.7-3.95a5.4 5.4 0 0 1-.45-2.165c0-3.058 2.501-5.504 5.627-5.504 1.95 0 3.676.978 4.688 2.446h.313a7 7 0 0 1 2.632.512 6.9 6.9 0 0 1 2.23 1.458 6.7 6.7 0 0 1 1.491 2.183 6.6 6.6 0 0 1 0 5.148 6.7 6.7 0 0 1-1.49 2.183 6.9 6.9 0 0 1-2.231 1.458 7 7 0 0 1-4.507.256v6.372m204.94 0v-7.72a8.2 8.2 0 0 1-2.773.472c-4.62 0-8.317-3.624-8.317-8.154 0-2.302.924-4.367 2.514-5.853a8 8 0 0 1-.666-3.208c0-4.53 3.697-8.154 8.318-8.154a8.41 8.41 0 0 1 6.931 3.624h.462c1.335 0 2.657.258 3.89.76 1.233.5 2.354 1.234 3.298 2.16a9.9 9.9 0 0 1 2.203 3.233 9.8 9.8 0 0 1 0 7.627 9.9 9.9 0 0 1-2.203 3.234 10.2 10.2 0 0 1-3.298 2.16 10.34 10.34 0 0 1-6.663.378v9.44m124.769.001c0-1.507.193-2.318.696-3.966-.57.367-.945.793-1.197 1.265-.389.727-.515 1.618-.515 2.7 0-1.474-.066-2.882-.513-4.154a5.8 5.8 0 0 0-1.533-2.368c.517 1.903.522 4.304.379 6.39m0 .007c0-1.13-.072-1.783-.365-2.586-.166-.5-.72-1.258-1.148-1.63.467 1.555.64 2.706.64 4.342m-255.162 0c0-1.883.258-2.897.928-4.957-.76.458-1.26.991-1.596 1.581-.519.909-.687 2.023-.687 3.376 0-1.844-.088-3.604-.683-5.194a7.26 7.26 0 0 0-2.044-2.96c.688 2.379.695 5.38.505 7.988m0 .009c0-1.412-.096-2.229-.487-3.233-.221-.625-.96-1.572-1.531-2.037.623 1.944.853 3.382.853 5.427m88.961 0c0-1.507.194-2.318.697-3.966-.571.367-.946.793-1.198 1.265-.389.727-.515 1.618-.515 2.7 0-1.474-.066-2.882-.512-4.154a5.84 5.84 0 0 0-1.533-2.368c.516 1.903.521 4.304.379 6.39m0 .007c0-1.13-.073-1.783-.366-2.586-.165-.5-.72-1.258-1.148-1.63.467 1.555.64 2.706.64 4.342m65.289 0c0-1.507-.193-2.318-.696-3.966.57.367.946.793 1.198 1.265.388.727.514 1.618.514 2.7 0-1.474.066-2.882.513-4.154.3-.853.773-1.653 1.533-2.368-.517 1.903-.522 4.304-.379 6.39m0 .007c0-1.13.072-1.783.365-2.586.166-.5.72-1.258 1.149-1.63-.468 1.555-.641 2.706-.641 4.342M6.124 33.117H-11m333.503-.185h16.309m3.261 0h46.479m-379.982 0h40.77m4.078 0H79.51m-.815 0h69.31m0 0h16.309m3.261 0h46.479m3.261 0h105.189"/></g><defs><clipPath id="a"><path fill="#fff" d="M0 0h345v33H0z"/></clipPath></defs></svg>