<svg xmlns="http://www.w3.org/2000/svg" width="345" height="27" fill="none" viewBox="0 0 345 27"><g stroke="#A5A6A6" clip-path="url(#a)" opacity="0.4"><path d="M-13 26.5h570"/><g clip-path="url(#b)"><path d="m23.791 13.98 2.395 2.394a2 2 0 0 1 .585 1.415v3.628a2 2 0 0 1-2 2H-5.482a2 2 0 0 1-1.949-2.45l.65-2.813a2 2 0 0 1 1.463-1.49l4.53-1.133a2 2 0 0 0 .462-.18l5.793-3.119a2 2 0 0 1 .948-.239h19.363"/><circle cx="3.97346" cy="3.97346" r="3.47346" fill="#EFF1F3" transform="matrix(-1 0 0 1 2.93 18.947)"/><circle cx="3.97346" cy="3.97346" r="3.47346" fill="#EFF1F3" transform="matrix(-1 0 0 1 24.785 18.947)"/></g><g clip-path="url(#c)"><path d="m144.791 13.98 2.395 2.394a2 2 0 0 1 .585 1.415v3.628a2 2 0 0 1-2 2h-30.253a2 2 0 0 1-1.949-2.45l.649-2.813a2 2 0 0 1 1.464-1.49l4.529-1.133q.243-.06.463-.18l5.793-3.119c.291-.156.617-.239.948-.239h19.363"/><circle cx="3.97346" cy="3.97346" r="3.47346" fill="#EFF1F3" transform="matrix(-1 0 0 1 123.931 18.947)"/><circle cx="3.97346" cy="3.97346" r="3.47346" fill="#EFF1F3" transform="matrix(-1 0 0 1 145.785 18.947)"/></g><g clip-path="url(#d)"><path d="m361.791 13.98 2.395 2.394a2 2 0 0 1 .585 1.415v3.628a2 2 0 0 1-2 2h-30.253a2 2 0 0 1-1.949-2.45l.649-2.813a2 2 0 0 1 1.464-1.49l4.529-1.133q.243-.06.463-.18l5.793-3.119c.291-.156.617-.239.948-.239h19.363"/><circle cx="3.97346" cy="3.97346" r="3.47346" fill="#EFF1F3" transform="matrix(-1 0 0 1 340.931 18.947)"/></g><path d="M65.938 0h27.736a1 1 0 0 1 .998.95l1.026 20.5a1 1 0 0 1-1 1.05H45.112a1 1 0 0 1-.995-1.105l.949-9.008a1 1 0 0 1 .588-.81l4.263-1.894a1 1 0 0 0 .433-.37L56.08.457A1 1 0 0 1 56.92 0H61a1 1 0 0 1 1 1v18.125"/><circle cx="4.5" cy="4.5" r="4" fill="#EFF1F3" transform="matrix(-1 0 0 1 90.125 18)"/><circle cx="4.5" cy="4.5" r="4" fill="#EFF1F3" transform="matrix(-1 0 0 1 56.375 18)"/><path d="M190.938 0h27.736a1 1 0 0 1 .999.95l1.025 20.5a1 1 0 0 1-.999 1.05h-49.588a1 1 0 0 1-.995-1.105l.949-9.008a1 1 0 0 1 .588-.81l4.263-1.894a1 1 0 0 0 .433-.37l5.73-8.856c.185-.285.501-.457.84-.457H186a1 1 0 0 1 1 1v18.125"/><circle cx="4.5" cy="4.5" r="4" fill="#EFF1F3" transform="matrix(-1 0 0 1 215.125 18)"/><circle cx="4.5" cy="4.5" r="4" fill="#EFF1F3" transform="matrix(-1 0 0 1 181.375 18)"/><g clip-path="url(#e)"><path d="m315.791 12.98 2.395 2.394a2 2 0 0 1 .585 1.415v3.628a2 2 0 0 1-2 2h-30.253a2 2 0 0 1-1.949-2.45l.649-2.813a2 2 0 0 1 1.464-1.49l4.529-1.133q.243-.06.463-.18l5.793-3.119c.291-.156.617-.239.948-.239h19.363"/><circle cx="3.97346" cy="3.97346" r="3.47346" fill="#EFF1F3" transform="matrix(-1 0 0 1 294.931 17.947)"/><circle cx="3.97346" cy="3.97346" r="3.47346" fill="#EFF1F3" transform="matrix(-1 0 0 1 316.784 17.947)"/></g><path d="m249.5 17 11.521-.48c.317-.013.631-.077.928-.188l3.042-1.141a3 3 0 0 1 1.053-.191H271a3.003 3.003 0 0 1 3 3v2a3 3 0 0 1-3 3h-32.24a2.67 2.67 0 0 1-2.632-2.229 2.7 2.7 0 0 1 .18-1.49l.553-1.29a3 3 0 0 1 2.236-1.773l6.598-1.164q.305-.054.593-.17L253.5 12"/><circle cx="4" cy="4" r="3.5" fill="#EFF1F3" transform="matrix(-1 0 0 1 271 18)"/><circle cx="4" cy="4" r="3.5" fill="#EFF1F3" transform="matrix(-1 0 0 1 247 18)"/></g><defs><clipPath id="a"><path fill="#fff" d="M0 0h345v27H0z"/></clipPath><clipPath id="b"><path fill="#fff" d="M27.765 11H-9v16.36h36.765z"/></clipPath><clipPath id="c"><path fill="#fff" d="M148.765 11h-36.764v16.36h36.764z"/></clipPath><clipPath id="d"><path fill="#fff" d="M365.765 11h-36.764v16.36h36.764z"/></clipPath><clipPath id="e"><path fill="#fff" d="M319.765 10h-36.764v16.36h36.764z"/></clipPath></defs></svg>