<svg xmlns="http://www.w3.org/2000/svg" width="557" height="27" fill="none" viewBox="0 0 557 27"><g clip-path="url(#a)" opacity="0.4"><path stroke="#A5A6A6" d="M5 26.5h555"/><g clip-path="url(#b)"><g stroke="#A5A6A6" clip-path="url(#c)"><path d="m28.79 13.98 2.395 2.394a2 2 0 0 1 .586 1.415v3.628a2 2 0 0 1-2 2H-.483a2 2 0 0 1-1.948-2.45l.649-2.813a2 2 0 0 1 1.464-1.49L4.21 15.53a2 2 0 0 0 .463-.18l5.792-3.119a2 2 0 0 1 .949-.239h19.363"/><circle cx="3.97346" cy="3.97346" r="3.47346" fill="#EFF1F3" transform="matrix(-1 0 0 1 7.93 18.947)"/><circle cx="3.97346" cy="3.97346" r="3.47346" fill="#EFF1F3" transform="matrix(-1 0 0 1 29.784 18.947)"/></g></g><g clip-path="url(#d)"><g stroke="#A5A6A6" clip-path="url(#e)"><path d="m203.791 13.98 2.394 2.394a2 2 0 0 1 .586 1.415v3.628a2 2 0 0 1-2 2h-30.254a2 2 0 0 1-1.948-2.45l.649-2.813a2 2 0 0 1 1.464-1.49l4.529-1.133q.242-.06.463-.18l5.792-3.119c.292-.156.618-.239.949-.239h19.363"/><circle cx="3.97346" cy="3.97346" r="3.47346" fill="#EFF1F3" transform="matrix(-1 0 0 1 182.93 18.947)"/><circle cx="3.97346" cy="3.97346" r="3.47346" fill="#EFF1F3" transform="matrix(-1 0 0 1 204.784 18.947)"/></g></g><path stroke="#A5A6A6" d="M73.188 0h27.736a1 1 0 0 1 .999.95l1.025 20.5a1 1 0 0 1-.999 1.05H52.361a1 1 0 0 1-.995-1.105l.949-9.008a1 1 0 0 1 .588-.81l4.263-1.894a1 1 0 0 0 .433-.37L63.33.457A1 1 0 0 1 64.17 0h4.081a1 1 0 0 1 1 1v18.125"/><circle cx="4.5" cy="4.5" r="4" fill="#EFF1F3" stroke="#A5A6A6" transform="matrix(-1 0 0 1 97.375 18)"/><circle cx="4.5" cy="4.5" r="4" fill="#EFF1F3" stroke="#A5A6A6" transform="matrix(-1 0 0 1 63.625 18)"/><path stroke="#A5A6A6" d="M368.188 0h27.736a1 1 0 0 1 .999.95l1.025 20.5a1 1 0 0 1-.999 1.05h-49.588a1 1 0 0 1-.995-1.105l.949-9.008a1 1 0 0 1 .588-.81l4.263-1.894a1 1 0 0 0 .433-.37l5.73-8.856c.185-.285.501-.457.84-.457h4.081a1 1 0 0 1 1 1v18.125"/><circle cx="4.5" cy="4.5" r="4" fill="#EFF1F3" stroke="#A5A6A6" transform="matrix(-1 0 0 1 392.375 18)"/><circle cx="4.5" cy="4.5" r="4" fill="#EFF1F3" stroke="#A5A6A6" transform="matrix(-1 0 0 1 358.625 18)"/><path stroke="#A5A6A6" d="M301.188 0h27.736a1 1 0 0 1 .999.95l1.025 20.5a1 1 0 0 1-.999 1.05h-49.588a1 1 0 0 1-.995-1.105l.949-9.008a1 1 0 0 1 .588-.81l4.263-1.894a1 1 0 0 0 .433-.37l5.73-8.856c.185-.285.501-.457.84-.457h4.081a1 1 0 0 1 1 1v18.125"/><circle cx="4.5" cy="4.5" r="4" fill="#EFF1F3" stroke="#A5A6A6" transform="matrix(-1 0 0 1 325.375 18)"/><circle cx="4.5" cy="4.5" r="4" fill="#EFF1F3" stroke="#A5A6A6" transform="matrix(-1 0 0 1 291.625 18)"/><g clip-path="url(#f)"><g stroke="#A5A6A6" clip-path="url(#g)"><path d="m550.791 12.98 2.394 2.394a2 2 0 0 1 .586 1.415v3.628a2 2 0 0 1-2 2h-30.254a2 2 0 0 1-1.948-2.45l.649-2.813a2 2 0 0 1 1.464-1.49l4.529-1.133q.242-.06.463-.18l5.792-3.119c.292-.156.618-.239.949-.239h19.363"/><circle cx="3.97346" cy="3.97346" r="3.47346" fill="#EFF1F3" transform="matrix(-1 0 0 1 529.93 17.947)"/><circle cx="3.97346" cy="3.97346" r="3.47346" fill="#EFF1F3" transform="matrix(-1 0 0 1 551.784 17.947)"/></g></g><g clip-path="url(#h)"><g stroke="#A5A6A6" clip-path="url(#i)"><path d="m445.791 12.98 2.394 2.394a2 2 0 0 1 .586 1.415v3.628a2 2 0 0 1-2 2h-30.254a2 2 0 0 1-1.948-2.45l.649-2.813a2 2 0 0 1 1.464-1.49l4.529-1.133q.242-.06.463-.18l5.792-3.119c.292-.156.618-.239.949-.239h19.363"/><circle cx="3.97346" cy="3.97346" r="3.47346" fill="#EFF1F3" transform="matrix(-1 0 0 1 424.93 17.947)"/><circle cx="3.97346" cy="3.97346" r="3.47346" fill="#EFF1F3" transform="matrix(-1 0 0 1 446.784 17.947)"/></g></g><path stroke="#A5A6A6" d="m478.5 17 11.521-.48c.317-.013.631-.077.928-.188l3.042-1.141a3 3 0 0 1 1.053-.191H500a3.003 3.003 0 0 1 3 3v2a3 3 0 0 1-3 3h-32.24a2.67 2.67 0 0 1-2.632-2.229 2.7 2.7 0 0 1 .18-1.49l.553-1.29a3 3 0 0 1 2.236-1.773l6.598-1.164q.305-.054.593-.17L482.5 12"/><circle cx="4" cy="4" r="3.5" fill="#EFF1F3" stroke="#A5A6A6" transform="matrix(-1 0 0 1 500 18)"/><circle cx="4" cy="4" r="3.5" fill="#EFF1F3" stroke="#A5A6A6" transform="matrix(-1 0 0 1 476 18)"/><path stroke="#A5A6A6" d="m239.5 17 11.521-.48c.317-.013.631-.077.928-.188l3.042-1.141a3 3 0 0 1 1.053-.191H261a3.003 3.003 0 0 1 3 3v2a3 3 0 0 1-3 3h-32.24a2.67 2.67 0 0 1-2.632-2.229 2.7 2.7 0 0 1 .18-1.49l.553-1.29a3 3 0 0 1 2.236-1.773l6.598-1.164q.305-.054.593-.17L243.5 12"/><circle cx="4" cy="4" r="3.5" fill="#EFF1F3" stroke="#A5A6A6" transform="matrix(-1 0 0 1 261 18)"/><circle cx="4" cy="4" r="3.5" fill="#EFF1F3" stroke="#A5A6A6" transform="matrix(-1 0 0 1 237 18)"/><path stroke="#A5A6A6" d="m131.5 17 11.521-.48c.317-.013.631-.077.928-.188l3.042-1.141a3 3 0 0 1 1.053-.191H153a3.003 3.003 0 0 1 3 3v2a3 3 0 0 1-3 3h-32.24a2.67 2.67 0 0 1-2.632-2.229 2.7 2.7 0 0 1 .18-1.49l.553-1.29a3 3 0 0 1 2.236-1.773l6.598-1.164q.305-.054.593-.17L135.5 12"/><circle cx="4" cy="4" r="3.5" fill="#EFF1F3" stroke="#A5A6A6" transform="matrix(-1 0 0 1 153 18)"/><circle cx="4" cy="4" r="3.5" fill="#EFF1F3" stroke="#A5A6A6" transform="matrix(-1 0 0 1 129 18)"/></g><defs><clipPath id="a"><path fill="#fff" d="M0 0h557v27H0z"/></clipPath><clipPath id="b"><path fill="#fff" d="M-8 11h44v16H-8z"/></clipPath><clipPath id="c"><path fill="#fff" d="M32.764 11H-4v16.36h36.764z"/></clipPath><clipPath id="d"><path fill="#fff" d="M171 11h40v16h-40z"/></clipPath><clipPath id="e"><path fill="#fff" d="M207.764 11H171v16.36h36.764z"/></clipPath><clipPath id="f"><path fill="#fff" d="M518 10h37v16h-37z"/></clipPath><clipPath id="g"><path fill="#fff" d="M554.764 10H518v16.36h36.764z"/></clipPath><clipPath id="h"><path fill="#fff" d="M413 10h37v16h-37z"/></clipPath><clipPath id="i"><path fill="#fff" d="M449.764 10H413v16.36h36.764z"/></clipPath></defs></svg>