<svg width="48" height="46" viewBox="0 0 48 46" fill="none" xmlns="http://www.w3.org/2000/svg">
<path d="M47.3566 24.0765C47.3829 23.8146 47.3935 23.5513 47.3883 23.2881C47.3897 19.737 46.8561 17.0191 45.4129 13.7977L37.1108 17.7511C37.8271 19.5536 38.1935 21.339 38.1893 23.2881C38.1946 23.5513 38.184 23.8146 38.1576 24.0765H47.3566Z" fill="#056370"/>
<path d="M26.2197 1.42554C29.3923 1.6487 32.0492 2.49507 34.8398 3.93042L31.1982 9.29956C29.5217 8.44793 27.8378 7.92892 25.9199 7.72046L26.2197 1.42554Z" stroke="#056370" stroke-width="2.03835"/>
<path d="M32.3667 11.4257C34.242 12.7505 35.6849 14.5762 36.7154 16.5651L45.0175 12.6117C43.1822 9.25435 41.1933 6.4489 37.9014 4.30969L32.3667 11.4257Z" fill="#056370"/>
<path d="M22.6504 7.86597C20.9792 8.02945 19.3525 8.50777 17.8516 9.27612L14.4316 3.88159C16.9417 2.55126 19.8725 1.64111 22.6504 1.42554V7.86597Z" stroke="#056370" stroke-width="2.03835"/>
<path d="M15.147 11.1925C13.7066 12.1966 12.4719 13.4282 11.5054 14.8331L5.36865 11.6232C6.9727 9.29403 9.09215 7.2753 11.604 5.69348L15.147 11.1925Z" stroke="#056370" stroke-width="2.03835"/>
<path d="M10.0859 17.8925C9.39877 19.6797 8.80102 22.0315 8.75879 23.8475H1.76367C1.79276 20.8377 2.44226 17.8689 3.6709 15.1239L10.0859 17.8925Z" stroke="#056370" stroke-width="2.03835"/>
<path d="M33.3794 22.112L26.3043 22.7403L26.6541 19.8118L33.3794 22.112Z" fill="#056370" stroke="#056370" stroke-width="1.01917"/>
<path d="M23.6695 24.0762C25.4162 24.0762 26.8322 22.6602 26.8322 20.9135C26.8322 19.1668 25.4162 17.7509 23.6695 17.7509C21.9228 17.7509 20.5068 19.1668 20.5068 20.9135C20.5068 22.6602 21.9228 24.0762 23.6695 24.0762Z" fill="#056370" stroke="#056370" stroke-width="2.03835" stroke-miterlimit="10"/>
<rect x="0.740234" y="28.0907" width="46.6497" height="1.58134" fill="#056370"/>
<path d="M5.02176 32.5304L12.8718 36.457L5.54622 41.2921L5.02176 32.5304ZM12.5171 41.3203L12.9285 40.6811L12.5171 41.3203ZM23.9145 44.6919L23.9082 45.452L23.9145 44.6919ZM35.3724 41.5088L35.7729 42.1549L35.3724 41.5088ZM8.79018 38.24L9.34129 37.7164C10.4 38.8309 11.6029 39.8278 12.9285 40.6811L12.5171 41.3203L12.1056 41.9595C10.6789 41.041 9.38206 39.9667 8.23907 38.7635L8.79018 38.24ZM12.5171 41.3203L12.9285 40.6811C16.1683 42.7666 19.9937 43.8994 23.9208 43.9318L23.9145 44.6919L23.9082 45.452C19.6989 45.4173 15.5916 44.2034 12.1056 41.9595L12.5171 41.3203ZM23.9145 44.6919L23.9208 43.9318C27.8478 43.9642 31.6938 42.8947 34.9719 40.8627L35.3724 41.5088L35.7729 42.1549C32.2464 44.3408 28.1176 45.4867 23.9082 45.452L23.9145 44.6919ZM35.3724 41.5088L34.9719 40.8627C38.2497 38.831 40.8099 35.9303 42.3354 32.5325L43.0288 32.8439L43.7223 33.1552C42.0685 36.8386 39.2998 39.9688 35.7729 42.1549L35.3724 41.5088Z" fill="#056370"/>
</svg>
