<svg width="91" height="91" viewBox="0 0 91 91" fill="none" xmlns="http://www.w3.org/2000/svg">
<path d="M32.7764 19.2579H47.9213" stroke="#056370" stroke-width="2.57143" stroke-miterlimit="10"/>
<path d="M18.4226 32.5552V53.9367" stroke="#056370" stroke-width="2.57143" stroke-miterlimit="10"/>
<path d="M40.3752 24.4129V19.2579" stroke="#056370" stroke-width="2.57143" stroke-miterlimit="10"/>
<path d="M23.4901 43.2163H18.4226" stroke="#056370" stroke-width="2.57143" stroke-miterlimit="10"/>
<path d="M70.0522 51.8222V38.5318H64.3805V35.9428C64.3807 35.266 64.0938 34.616 63.5812 34.1321C63.0686 33.6482 62.3711 33.3688 61.6381 33.3537H52.3514V28.4633C52.3514 27.7767 52.0559 27.1181 51.5299 26.6326C51.0039 26.147 50.2906 25.8743 49.5467 25.8743H33.1547C32.4217 25.8893 31.7243 26.1687 31.2117 26.6526C30.6991 27.1365 30.4122 27.7865 30.4124 28.4633V31.2825H27.857C27.1131 31.2825 26.3997 31.5553 25.8737 32.0408C25.3477 32.5263 25.0522 33.1849 25.0522 33.8715V54.8715C25.0685 55.5482 25.3712 56.192 25.8954 56.6652C26.4197 57.1383 27.1238 57.4032 27.857 57.403H31.098L37.8293 63.6743H50.6686" stroke="#056370" stroke-width="2.57143" stroke-miterlimit="10"/>
<path d="M76.1638 51.2036L62.9473 43.3284C62.7738 43.1822 62.5544 43.1021 62.3278 43.1021C62.1012 43.1021 61.8818 43.1822 61.7083 43.3284L48.4918 51.2036C48.3229 51.3015 48.1829 51.4425 48.0861 51.6125C47.9894 51.7824 47.9393 51.975 47.9411 52.1707V56.7301C47.8796 61.2814 49.1691 65.7482 51.6452 69.5618C54.1214 73.3754 57.6723 76.3633 61.8459 78.1452H62.672C66.8824 76.4002 70.4728 73.4251 72.977 69.6062C75.4812 65.7874 76.7834 61.3011 76.7145 56.7301V52.1707C76.7163 51.975 76.6662 51.7824 76.5695 51.6125C76.4727 51.4425 76.3327 51.3015 76.1638 51.2036Z" fill="#056370"/>
<path fill-rule="evenodd" clip-rule="evenodd" d="M60.2451 53.3877C60.0861 53.3877 59.9314 53.441 59.8042 53.5396C59.6771 53.6383 59.5843 53.7769 59.5398 53.9347L56.9684 63.0509C56.9364 63.1641 56.9304 63.2835 56.9508 63.3995C56.9712 63.5155 57.0175 63.6251 57.0859 63.7194C57.1543 63.8138 57.2431 63.8903 57.3451 63.9431C57.4471 63.9958 57.5596 64.0233 57.6737 64.0233H60.5147L59.8829 69.2469C59.862 69.4169 59.8974 69.5891 59.9832 69.7357C60.069 69.8823 60.2002 69.9946 60.3555 70.0543C60.5108 70.114 60.6811 70.1178 60.8387 70.0648C60.9963 70.0119 61.132 69.9054 61.2237 69.7627L67.1011 60.6465C67.175 60.5321 67.2174 60.3991 67.2238 60.2617C67.2303 60.1243 67.2005 59.9877 67.1378 59.8665C67.075 59.7452 66.9816 59.6438 66.8675 59.5731C66.7534 59.5025 66.6229 59.4652 66.4899 59.4652H63.8766L65.7082 54.414C65.7498 54.2991 65.7639 54.1755 65.7493 54.0537C65.7347 53.9319 65.6917 53.8156 65.6241 53.7147C65.5566 53.6139 65.4663 53.5314 65.3612 53.4745C65.2561 53.4175 65.1392 53.3877 65.0205 53.3877H60.2451Z" fill="white"/>
</svg>
