<svg width="76" height="76" viewBox="0 0 76 76" fill="none" xmlns="http://www.w3.org/2000/svg">
<path d="M27.7852 16.1697H40.3661" stroke="#056370" stroke-width="2.12423" stroke-miterlimit="10"/>
<path d="M15.8618 27.1544V44.8175" stroke="#056370" stroke-width="2.12423" stroke-miterlimit="10"/>
<path d="M34.0977 20.4282V16.1697" stroke="#056370" stroke-width="2.12423" stroke-miterlimit="10"/>
<path d="M20.0714 35.9614H15.8618" stroke="#056370" stroke-width="2.12423" stroke-miterlimit="10"/>
<path d="M58.7504 43.0707V32.0916H54.0388V29.9529C54.039 29.3938 53.8006 28.8568 53.3748 28.4571C52.949 28.0573 52.3696 27.8265 51.7607 27.8141H44.0462V23.7742C44.0462 23.2069 43.8007 22.6629 43.3638 22.2618C42.9269 21.8607 42.3342 21.6354 41.7163 21.6354H28.0994C27.4905 21.6478 26.9111 21.8786 26.4853 22.2784C26.0595 22.6781 25.8212 23.2151 25.8213 23.7742V26.1031H23.6985C23.0806 26.1031 22.488 26.3284 22.0511 26.7295C21.6141 27.1306 21.3687 27.6746 21.3687 28.2418V45.5897C21.3822 46.1487 21.6336 46.6806 22.0691 47.0714C22.5046 47.4623 23.0895 47.6811 23.6985 47.681H26.3909L31.9826 52.8616H42.6483" stroke="#056370" stroke-width="2.12423" stroke-miterlimit="10"/>
<path d="M40.9141 43.3534C40.9135 43.2861 40.9303 43.2196 40.9639 43.161C40.9807 43.1316 41.0016 43.1048 41.0254 43.0809L41.1055 43.0194L41.1104 43.0165L52.0898 36.5106L52.127 36.4891L52.1602 36.4608C52.2086 36.4203 52.2704 36.3983 52.334 36.3983C52.3976 36.3984 52.4594 36.4202 52.5078 36.4608L52.54 36.4891L52.5781 36.5106L63.5566 43.0165L63.5625 43.0194C63.5919 43.0364 63.6189 43.0572 63.6426 43.0809L63.7031 43.161C63.72 43.1905 63.7328 43.2223 63.7412 43.2548L63.7539 43.3534V47.1327C63.806 50.5727 62.8854 53.9534 61.1045 56.8885L60.7363 57.4696C58.7331 60.5075 55.8683 62.8791 52.5088 64.285H52.0469C48.9276 62.9401 46.244 60.7649 44.2891 58.0009L43.9043 57.4344C42.03 54.5638 40.9978 51.2324 40.917 47.8163L40.9141 47.1327V43.3534Z" fill="#056370" stroke="#EFF1F3" stroke-width="1.06212"/>
<path fill-rule="evenodd" clip-rule="evenodd" d="M50.6033 44.364C50.4713 44.364 50.3428 44.4081 50.2371 44.4895C50.1315 44.571 50.0544 44.6855 50.0174 44.8159L47.8813 52.3467C47.8548 52.4402 47.8498 52.5388 47.8668 52.6347C47.8837 52.7305 47.9221 52.821 47.979 52.8989C48.0358 52.9769 48.1096 53.0401 48.1943 53.0837C48.279 53.1273 48.3725 53.15 48.4672 53.15H50.8273L50.3024 57.4651C50.2851 57.6055 50.3145 57.7478 50.3858 57.8689C50.4571 57.99 50.5661 58.0828 50.6951 58.1321C50.8241 58.1815 50.9655 58.1845 51.0965 58.1408C51.2274 58.0971 51.3401 58.0091 51.4162 57.8912L56.2987 50.3604C56.36 50.2659 56.3952 50.1561 56.4006 50.0426C56.406 49.9291 56.3813 49.8162 56.3291 49.7161C56.277 49.6159 56.1994 49.5321 56.1046 49.4738C56.0098 49.4154 55.9014 49.3845 55.7909 49.3846H53.6201L55.1416 45.2119C55.1762 45.1169 55.1879 45.0148 55.1757 44.9142C55.1636 44.8136 55.1279 44.7175 55.0718 44.6342C55.0156 44.5509 54.9407 44.4827 54.8533 44.4357C54.766 44.3886 54.6689 44.3641 54.5703 44.364H50.6033Z" fill="white"/>
</svg>
