<svg width="57" height="52" viewBox="0 0 57 52" fill="none" xmlns="http://www.w3.org/2000/svg">
<path d="M13.9414 1.21423H26.5223" stroke="#056370" stroke-width="2.12423" stroke-miterlimit="10"/>
<path d="M2.01807 12.1989V29.8619" stroke="#056370" stroke-width="2.12423" stroke-miterlimit="10"/>
<path d="M20.2539 5.47272V1.21423" stroke="#056370" stroke-width="2.12423" stroke-miterlimit="10"/>
<path d="M6.22766 21.006H2.01807" stroke="#056370" stroke-width="2.12423" stroke-miterlimit="10"/>
<path d="M44.9061 28.1151V17.1361H40.1946V14.9973C40.1947 14.4382 39.9564 13.9013 39.5306 13.5015C39.1048 13.1017 38.5254 12.8709 37.9165 12.8585H30.202V8.81859C30.202 8.25135 29.9565 7.70734 29.5196 7.30624C29.0826 6.90514 28.49 6.67981 27.8721 6.67981H14.2552C13.6463 6.69223 13.0669 6.92304 12.6411 7.3228C12.2153 7.72256 11.9769 8.25949 11.9771 8.81859V11.1475H9.8543C9.23638 11.1475 8.64376 11.3728 8.20682 11.7739C7.76988 12.175 7.52441 12.719 7.52441 13.2863V30.6342C7.53795 31.1931 7.78938 31.725 8.22486 32.1159C8.66034 32.5067 9.24524 32.7255 9.8543 32.7254H12.5466L18.1383 37.906H28.804" stroke="#056370" stroke-width="2.12423" stroke-miterlimit="10"/>
<path d="M41.4561 25.1514C44.3258 25.1515 47.0845 26.2149 49.2002 28.1201L49.6143 28.5117C51.777 30.6624 52.9912 33.5789 52.9912 36.6182C52.9911 38.8845 52.3146 41.1001 51.0479 42.9854C49.8602 44.7529 48.2034 46.156 46.2637 47.04L45.8721 47.21C43.8954 48.0242 41.7322 48.2752 39.625 47.9385L39.2041 47.8633C36.9655 47.4204 34.9098 46.3276 33.2969 44.7236C31.7849 43.22 30.7254 41.3306 30.2324 39.2686L30.1416 38.8535C29.7248 36.7695 29.8994 34.614 30.6416 32.627L30.7979 32.2314C31.6158 30.2679 32.9657 28.5712 34.6943 27.3281L35.0449 27.0859C36.8235 25.9042 38.8954 25.2377 41.0283 25.1592L41.4561 25.1514Z" fill="#056370" stroke="#EFF1F3" stroke-width="1.91099"/>
<path d="M42.2197 35.6133V29.9293H40.4951V37.5733H47.2209V35.6133H42.2197Z" fill="#EFF1F3"/>
<path d="M31.897 48.14L32.1763 47.7524L31.897 48.14ZM37.5906 50.6405L37.4939 51.1083L37.5906 50.6405ZM43.8181 50.6042L43.9202 51.0708L43.8181 50.6042ZM49.4816 48.0375L49.1978 47.6532L49.4816 48.0375ZM53.5825 43.3929L53.1658 43.1592L53.5825 43.3929ZM55.3979 37.4894L55.8739 37.53L55.3979 37.4894ZM54.6076 31.3678L55.0577 31.2077L54.6076 31.3678ZM51.351 26.1073L51.8804 31.5984L56.3711 28.3944L51.351 26.1073ZM27.7412 43.5436L27.3273 43.7822C28.4027 45.6474 29.8651 47.2648 31.6177 48.5276L31.897 48.14L32.1763 47.7524C30.5331 46.5684 29.1626 45.0524 28.1551 43.305L27.7412 43.5436ZM31.897 48.14L31.6177 48.5276C33.3703 49.7904 35.3732 50.6699 37.4939 51.1083L37.5906 50.6405L37.6873 50.1726C35.6979 49.7614 33.8195 48.9364 32.1763 47.7524L31.897 48.14ZM37.5906 50.6405L37.4939 51.1083C39.6145 51.5467 41.8049 51.5339 43.9202 51.0708L43.8181 50.6042L43.7159 50.1375C41.7315 50.5718 39.6767 50.5838 37.6873 50.1726L37.5906 50.6405ZM43.8181 50.6042L43.9202 51.0708C46.0356 50.6078 48.0279 49.7049 49.7654 48.4218L49.4816 48.0375L49.1978 47.6532C47.5687 48.8562 45.7003 49.7031 43.7159 50.1375L43.8181 50.6042ZM49.4816 48.0375L49.7654 48.4218C51.5029 47.1386 52.9461 45.5043 53.9992 43.6266L53.5825 43.3929L53.1658 43.1592C52.1792 44.9183 50.8268 46.4501 49.1978 47.6532L49.4816 48.0375ZM53.5825 43.3929L53.9992 43.6266C55.0523 41.749 55.6914 39.671 55.8739 37.53L55.3979 37.4894L54.9219 37.4488C54.7509 39.4538 54.1525 41.4002 53.1658 43.1592L53.5825 43.3929ZM55.3979 37.4894L55.8739 37.53C56.0564 35.389 55.7782 33.2341 55.0577 31.2077L54.6076 31.3678L54.1574 31.5278C54.8323 33.4258 55.0928 35.4439 54.9219 37.4488L55.3979 37.4894ZM54.6076 31.3678L55.0577 31.2077C54.836 30.5841 54.5739 29.9771 54.2738 29.3901L53.8484 29.6077L53.4231 29.8252C53.7043 30.375 53.9498 30.9437 54.1574 31.5278L54.6076 31.3678Z" fill="#056370"/>
</svg>
