<svg width="62" height="60" viewBox="0 0 62 60" fill="none" xmlns="http://www.w3.org/2000/svg">
<path d="M61.8381 31.8785C61.8728 31.534 61.8868 31.1876 61.8799 30.8414C61.8818 26.1698 61.1786 22.5941 59.2769 18.3563L48.3369 23.5571C49.2807 25.9284 49.7636 28.2772 49.7581 30.8414C49.765 31.1876 49.751 31.534 49.7163 31.8785H61.8381Z" fill="#056370"/>
<path d="M33.9834 2.07874C38.1655 2.37211 41.6676 3.48699 45.3457 5.37561L40.5469 12.4401C38.3363 11.3187 36.1165 10.6351 33.5879 10.361L33.9834 2.07874Z" stroke="#056370" stroke-width="2.68154"/>
<path d="M42.0857 15.2359C44.5568 16.9787 46.4582 19.3804 47.8161 21.9969L58.7561 16.7961C56.3377 12.3793 53.7169 8.68861 49.379 5.87439L42.0857 15.2359Z" fill="#056370"/>
<path d="M29.2837 10.5533C27.081 10.7683 24.9369 11.3974 22.9585 12.4088L18.4507 5.31213C21.7592 3.56158 25.622 2.36014 29.2837 2.07678V10.5533Z" stroke="#056370" stroke-width="2.68154"/>
<path d="M19.3955 14.9281C17.4969 16.2494 15.8695 17.8708 14.5957 19.7201L6.50684 15.4965C8.62104 12.4317 11.4144 9.77503 14.7256 7.69373L19.3955 14.9281Z" stroke="#056370" stroke-width="2.68154"/>
<path d="M12.7261 23.743C11.8206 26.0945 11.0335 29.1888 10.978 31.578H1.75635C1.79459 27.6176 2.6512 23.7115 4.271 20.0995L12.7261 23.743Z" stroke="#056370" stroke-width="2.68154"/>
<path d="M43.4188 29.2946L34.0954 30.1203L34.5553 26.269L43.4188 29.2946Z" fill="#056370" stroke="#056370" stroke-width="1.34077"/>
<path d="M30.6246 31.8782C32.9263 31.8782 34.7922 30.0154 34.7922 27.7175C34.7922 25.4197 32.9263 23.5569 30.6246 23.5569C28.3229 23.5569 26.457 25.4197 26.457 27.7175C26.457 30.0154 28.3229 31.8782 30.6246 31.8782Z" fill="#056370" stroke="#056370" stroke-width="2.68154" stroke-miterlimit="10"/>
<rect x="0.409668" y="37.1594" width="61.472" height="2.08033" fill="#056370"/>
<path d="M5.99829 43L16.3254 48.1657L6.68825 54.5264L5.99829 43ZM30.8526 58.999L30.8443 59.999L30.8526 58.999ZM10.9558 50.5112L11.6808 49.8225C13.0737 51.2886 14.6561 52.6001 16.4 53.7227L15.8587 54.5635L15.3175 55.4044C13.4405 54.1961 11.7345 52.7828 10.2308 51.1999L10.9558 50.5112ZM15.8587 54.5635L16.4 53.7227C20.6621 56.4662 25.6946 57.9564 30.8608 57.9991L30.8526 58.999L30.8443 59.999C25.3067 59.9533 19.9034 58.3564 15.3175 55.4044L15.8587 54.5635ZM30.8526 58.999L30.8608 57.9991C36.027 58.0417 41.0866 56.6347 45.3991 53.9615L45.926 54.8115L46.4528 55.6615C41.8135 58.5371 36.3819 60.0447 30.8443 59.999L30.8526 58.999ZM45.926 54.8115L45.3991 53.9615C49.7112 51.2887 53.0792 47.4727 55.086 43.0028L55.9983 43.4124L56.9106 43.822C54.735 48.6677 51.0926 52.7855 46.4528 55.6615L45.926 54.8115Z" fill="#056370"/>
</svg>
