<svg width="69" height="64" viewBox="0 0 69 64" fill="none" xmlns="http://www.w3.org/2000/svg">
<path d="M16.5806 1.94739H31.9639" stroke="#056370" stroke-width="2.60757" stroke-miterlimit="10"/>
<path d="M2.00073 15.4315V37.1135" stroke="#056370" stroke-width="2.60757" stroke-miterlimit="10"/>
<path d="M24.2986 7.17483V1.94739" stroke="#056370" stroke-width="2.60757" stroke-miterlimit="10"/>
<path d="M7.14801 26.2424H2.00073" stroke="#056370" stroke-width="2.60757" stroke-miterlimit="10"/>
<path d="M54.4429 34.9693V21.492H48.6818V18.8666C48.682 18.1803 48.3906 17.5212 47.8699 17.0305C47.3493 16.5398 46.6408 16.2564 45.8963 16.2412H36.4634V11.282C36.4634 10.5857 36.1632 9.91795 35.6289 9.42559C35.0947 8.93322 34.3701 8.65662 33.6145 8.65662H16.9644C16.2199 8.67187 15.5114 8.95519 14.9908 9.44591C14.4701 9.93663 14.1787 10.5957 14.1789 11.282V14.1408H11.5832C10.8277 14.1408 10.1031 14.4175 9.56879 14.9098C9.03452 15.4022 8.73438 16.07 8.73438 16.7663V38.0614C8.75092 38.7476 9.05836 39.4005 9.59085 39.8803C10.1233 40.3601 10.8385 40.6287 11.5832 40.6285H14.8753L21.7126 46.9879H34.754" stroke="#056370" stroke-width="2.60757" stroke-miterlimit="10"/>
<path d="M50.2236 31.3315C53.8467 31.3316 57.3256 32.7238 59.9434 35.2104L60.1943 35.4546C62.8384 38.0943 64.3232 41.6745 64.3232 45.4067C64.3232 48.1899 63.4963 50.9106 61.9473 53.2251C60.3982 55.5395 58.1967 57.3442 55.6201 58.4097C53.0434 59.4752 50.2072 59.7537 47.4717 59.2104C44.9073 58.7011 42.5386 57.4914 40.6279 55.7202L40.252 55.3579C38.4034 53.5123 37.1077 51.1928 36.5049 48.6606L36.3936 48.1519C35.8837 45.5928 36.0972 42.946 37.0049 40.5063L37.1963 40.021C38.1966 37.6101 39.8469 35.5269 41.96 34.0015L42.3887 33.7046C44.5626 32.2545 47.0949 31.4377 49.7012 31.3413L50.2236 31.3315Z" fill="#056370" stroke="#EFF1F3" stroke-width="2.3458"/>
<path d="M51.1573 44.1734V37.1962H49.0486V46.5794H57.2726V44.1734H51.1573Z" fill="#EFF1F3"/>
<path d="M38.7759 59.5504L39.1188 59.0746H39.1188L38.7759 59.5504ZM45.765 62.6198L45.8837 62.0455L45.765 62.6198ZM53.4095 62.5753L53.5349 63.1482L53.4095 62.5753ZM60.3616 59.4246L60.71 59.8963L60.3616 59.4246ZM67.6241 46.4765L68.2084 46.5263V46.5263L67.6241 46.4765ZM66.654 38.9619L67.2066 38.7655L66.654 38.9619ZM62.6564 32.5045L63.3063 39.245L68.8188 35.312L62.6564 32.5045ZM33.6746 53.9082L33.1665 54.2011C34.4865 56.4907 36.2817 58.476 38.4331 60.0262L38.7759 59.5504L39.1188 59.0746C37.1017 57.6212 35.4193 55.7603 34.1826 53.6152L33.6746 53.9082ZM38.7759 59.5504L38.4331 60.0262C40.5845 61.5764 43.0431 62.656 45.6463 63.1941L45.765 62.6198L45.8837 62.0455C43.4417 61.5407 41.1359 60.528 39.1188 59.0746L38.7759 59.5504ZM45.765 62.6198L45.6463 63.1941C48.2495 63.7322 50.9383 63.7166 53.5349 63.1482L53.4095 62.5753L53.2841 62.0024C50.8482 62.5356 48.3258 62.5503 45.8837 62.0455L45.765 62.6198ZM53.4095 62.5753L53.5349 63.1482C56.1316 62.5797 58.5772 61.4715 60.71 59.8963L60.3616 59.4246L60.0132 58.9528C58.0135 60.4296 55.72 61.4692 53.2841 62.0024L53.4095 62.5753ZM60.3616 59.4246L60.71 59.8963C62.8429 58.3212 64.6144 56.315 65.9072 54.0101L65.3957 53.7232L64.8842 53.4364C63.673 55.5957 62.0129 57.476 60.0132 58.9528L60.3616 59.4246ZM65.3957 53.7232L65.9072 54.0101C67.1999 51.7053 67.9844 49.1544 68.2084 46.5263L67.6241 46.4765L67.0398 46.4267C66.83 48.8878 66.0953 51.277 64.8842 53.4364L65.3957 53.7232ZM67.6241 46.4765L68.2084 46.5263C68.4325 43.8981 68.0909 41.2529 67.2066 38.7655L66.654 38.9619L66.1014 39.1584C66.9298 41.4882 67.2496 43.9655 67.0398 46.4267L67.6241 46.4765ZM66.654 38.9619L67.2066 38.7655C66.9344 38 66.6127 37.2548 66.2442 36.5343L65.7221 36.8013L65.2 37.0684C65.5452 37.7433 65.8465 38.4414 66.1014 39.1584L66.654 38.9619Z" fill="#056370"/>
</svg>
